<svg width="108" height="32" viewBox="0 0 108 32" fill="none" xmlns="http://www.w3.org/2000/svg">
<g clip-path="url(#clip0)">
<path d="M99.3996 0.000104H8.6053C8.27435 0.000104 7.94736 0.000104 7.61728 0.001704C7.34097 0.003304 7.06686 0.007952 6.7879 0.011864C6.18187 0.0181854 5.57726 0.065445 4.97933 0.153232C4.38224 0.24293 3.80385 0.412037 3.26373 0.654832C2.72428 0.899681 2.23136 1.21784 1.80286 1.59776C1.37211 1.97661 1.01305 2.41452 0.739485 2.89463C0.465162 3.37379 0.274946 3.88726 0.175406 4.41729C0.0749196 4.94665 0.0208469 5.48212 0.0136733 6.01889C0.00529783 6.26417 0.00441335 6.51026 0 6.75558V25.247C0.00441335 25.4954 0.00529783 25.736 0.0136733 25.9845C0.0208491 26.5212 0.0749218 27.0567 0.175406 27.586C0.274671 28.1164 0.464899 28.6301 0.739485 29.1095C1.01293 29.588 1.37204 30.0242 1.80286 30.4009C2.22973 30.7825 2.72297 31.1009 3.26373 31.3439C3.80385 31.5873 4.38217 31.7574 4.97933 31.8485C5.57736 31.9356 6.18191 31.9829 6.7879 31.9899C7.06686 31.9954 7.34097 31.9985 7.61728 31.9985C7.94735 32.0001 8.27436 32.0001 8.6053 32.0001H99.3996C99.7239 32.0001 100.054 32.0001 100.378 31.9985C100.653 31.9985 100.935 31.9954 101.21 31.9899C101.815 31.9832 102.418 31.936 103.015 31.8485C103.614 31.7568 104.194 31.5867 104.737 31.3439C105.277 31.1007 105.77 30.7824 106.197 30.4009C106.626 30.0227 106.986 29.5869 107.263 29.1095C107.536 28.6298 107.724 28.1161 107.822 27.586C107.923 27.0566 107.979 26.5213 107.989 25.9845C107.993 25.736 107.993 25.4954 107.993 25.247C108 24.9563 108 24.6673 108 24.3719V7.62901C108 7.33604 108 7.04542 107.993 6.75558C107.993 6.51026 107.993 6.26417 107.989 6.01886C107.979 5.48204 107.923 4.94669 107.822 4.41726C107.724 3.88753 107.535 3.37411 107.263 2.8946C106.706 1.93226 105.823 1.14892 104.737 0.65476C104.194 0.412558 103.614 0.243496 103.015 0.15316C102.418 0.0649862 101.815 0.0177102 101.21 0.011752C100.935 0.007848 100.653 0.00316 100.378 0.0016C100.054 0 99.7239 0 99.3996 0V0.000104Z" fill="#A6A6A6"/>
<path d="M7.54479 31.3027C7.26933 31.3027 7.00053 31.2996 6.72724 31.2941C6.16108 31.2876 5.59625 31.244 5.03737 31.1636C4.51625 31.0842 4.01142 30.9364 3.53954 30.7252C3.07198 30.5157 2.64554 30.2411 2.27653 29.9118C1.90219 29.5863 1.59053 29.2088 1.3539 28.7943C1.11467 28.3771 0.949111 27.9299 0.862985 27.4683C0.769976 26.9723 0.719655 26.4707 0.712455 25.968C0.706723 25.7992 0.699219 25.2373 0.699219 25.2373V6.75303C0.699219 6.75303 0.707211 6.19978 0.7125 6.03725C0.719394 5.53529 0.769423 5.03452 0.862153 4.53928C0.948438 4.0764 1.11413 3.6279 1.35349 3.20932C1.58924 2.79508 1.89917 2.41734 2.27126 2.09072C2.64293 1.76101 3.07074 1.48494 3.5391 1.27258C4.00989 1.06204 4.51377 0.915321 5.03384 0.837335C5.59455 0.756171 6.16134 0.712289 6.72946 0.706059L7.54523 0.696289H100.457L101.282 0.706451C101.845 0.712372 102.407 0.755862 102.962 0.83655C103.488 0.915515 103.997 1.06326 104.473 1.27492C105.411 1.70289 106.175 2.37997 106.656 3.21127C106.892 3.62696 107.055 4.0718 107.14 4.53068C107.234 5.02999 107.287 5.53469 107.297 6.04077C107.3 6.26737 107.3 6.51078 107.3 6.75303C107.307 7.05309 107.307 7.33869 107.307 7.62664V24.3731C107.307 24.6638 107.307 24.9474 107.3 25.2334C107.3 25.4936 107.3 25.732 107.297 25.9773C107.286 26.4744 107.234 26.9701 107.142 27.4604C107.058 27.9254 106.893 28.3761 106.654 28.7967C106.416 29.2067 106.106 29.5809 105.736 29.9055C105.366 30.2366 104.939 30.5129 104.47 30.7237C103.996 30.9365 103.487 31.0848 102.962 31.1636C102.404 31.2444 101.839 31.288 101.273 31.2941C101.008 31.2996 100.73 31.3027 100.461 31.3027L99.4812 31.3043L7.54479 31.3027Z" fill="#001F1D"/>
<path d="M26.2363 16.2404C26.2449 15.5726 26.4223 14.9179 26.7519 14.3372C27.0815 13.7564 27.5527 13.2685 28.1215 12.9187C27.7601 12.4026 27.2834 11.9778 26.7291 11.6782C26.1749 11.3785 25.5584 11.2123 24.9286 11.1926C23.5852 11.0516 22.2829 11.9964 21.5983 11.9964C20.9005 11.9964 19.8465 11.2066 18.7115 11.2299C17.9773 11.2536 17.2619 11.4671 16.6348 11.8496C16.0077 12.232 15.4903 12.7704 15.1332 13.4122C13.586 16.091 14.74 20.0278 16.2221 22.1931C16.9636 23.2534 17.8303 24.4377 18.9642 24.3957C20.0739 24.3497 20.4883 23.6881 21.8277 23.6881C23.1547 23.6881 23.5436 24.3957 24.7005 24.369C25.8912 24.3497 26.6414 23.304 27.3569 22.2337C27.8897 21.4782 28.2997 20.6432 28.5717 19.7597C27.8799 19.4671 27.2896 18.9774 26.8743 18.3515C26.459 17.7257 26.2371 16.9915 26.2363 16.2404Z" fill="white"/>
<path d="M24.0504 9.76906C24.6996 8.98969 25.0194 7.98795 24.942 6.97656C23.9501 7.08074 23.0339 7.55479 22.3759 8.30425C22.0542 8.67038 21.8078 9.09633 21.6508 9.55775C21.4938 10.0192 21.4293 10.507 21.461 10.9934C21.9571 10.9985 22.4479 10.8909 22.8964 10.6789C23.3449 10.4668 23.7395 10.1557 24.0504 9.76906Z" fill="white"/>
<path d="M40.2609 21.7121H36.4742L35.5648 24.3973H33.9609L37.5477 14.4629H39.2141L42.8008 24.3973H41.1695L40.2609 21.7121ZM36.8664 20.4731H39.868L38.3883 16.1153H38.3469L36.8664 20.4731Z" fill="white"/>
<path d="M50.5492 20.7761C50.5492 23.0269 49.3446 24.473 47.5266 24.473C47.0661 24.4971 46.6081 24.391 46.205 24.1669C45.802 23.9428 45.4702 23.6097 45.2477 23.2058H45.2133V26.7933H43.7266V17.1543H45.1656V18.359H45.193C45.4258 17.957 45.7631 17.6256 46.1692 17.4002C46.5753 17.1747 47.035 17.0635 47.4992 17.0785C49.3375 17.0785 50.5492 18.5316 50.5492 20.7761ZM49.0211 20.7761C49.0211 19.3097 48.2633 18.3457 47.107 18.3457C45.9711 18.3457 45.207 19.3301 45.207 20.7761C45.207 22.2355 45.9711 23.2129 47.107 23.2129C48.2633 23.2129 49.0211 22.2558 49.0211 20.7761Z" fill="white"/>
<path d="M58.518 20.7761C58.518 23.0269 57.3133 24.473 55.4953 24.473C55.0348 24.4971 54.5768 24.391 54.1738 24.1669C53.7707 23.9428 53.439 23.6097 53.2164 23.2058H53.182V26.7933H51.6953V17.1543H53.1344V18.3589H53.1617C53.3945 17.957 53.7319 17.6256 54.138 17.4002C54.5441 17.1747 55.0037 17.0635 55.468 17.0785C57.3063 17.0785 58.518 18.5316 58.518 20.7761ZM56.9899 20.7761C56.9899 19.3097 56.2321 18.3457 55.0758 18.3457C53.9399 18.3457 53.1758 19.33 53.1758 20.7761C53.1758 22.2355 53.9399 23.2129 55.0758 23.2129C56.2321 23.2129 56.9899 22.2558 56.9899 20.7761H56.9899Z" fill="white"/>
<path d="M63.7875 21.6289C63.8977 22.6141 64.8547 23.2609 66.1625 23.2609C67.4157 23.2609 68.3172 22.6141 68.3172 21.7258C68.3172 20.9547 67.7735 20.493 66.486 20.1766L65.1985 19.8664C63.3743 19.4258 62.5274 18.5727 62.5274 17.1883C62.5274 15.4742 64.0211 14.2969 66.1422 14.2969C68.2414 14.2969 69.6805 15.4742 69.7289 17.1883H68.2281C68.1383 16.1969 67.3188 15.5984 66.1211 15.5984C64.9234 15.5984 64.1039 16.2039 64.1039 17.0852C64.1039 17.7875 64.6274 18.2008 65.9078 18.5172L67.0023 18.7859C69.0406 19.2679 69.8875 20.0867 69.8875 21.5398C69.8875 23.3984 68.407 24.5625 66.0523 24.5625C63.8492 24.5625 62.3617 23.4258 62.2656 21.6289L63.7875 21.6289Z" fill="white"/>
<path d="M73.0976 15.4395V17.1535H74.475V18.3309H73.0976V22.3238C73.0976 22.9441 73.3734 23.2332 73.9789 23.2332C74.1424 23.2304 74.3057 23.2189 74.468 23.1988V24.3691C74.1957 24.42 73.9191 24.443 73.6422 24.4379C72.1758 24.4379 71.6039 23.8871 71.6039 22.4824V18.3309H70.5508V17.1535H71.6039V15.4395H73.0976Z" fill="white"/>
<path d="M75.2734 20.7754C75.2734 18.4965 76.6156 17.0645 78.7086 17.0645C80.8086 17.0645 82.1445 18.4965 82.1445 20.7754C82.1445 23.0605 80.8156 24.4863 78.7086 24.4863C76.6023 24.4863 75.2734 23.0605 75.2734 20.7754ZM80.6297 20.7754C80.6297 19.2121 79.9133 18.2895 78.7086 18.2895C77.5039 18.2895 76.7883 19.2191 76.7883 20.7754C76.7883 22.3449 77.5039 23.2605 78.7086 23.2605C79.9133 23.2605 80.6297 22.3449 80.6297 20.7754H80.6297Z" fill="white"/>
<path d="M83.3672 17.1542H84.7852V18.387H84.8196C84.9155 18.002 85.1411 17.6617 85.4583 17.4234C85.7756 17.1851 86.1652 17.0633 86.5618 17.0784C86.7331 17.0778 86.9039 17.0964 87.0711 17.1339V18.5245C86.8548 18.4584 86.6292 18.4281 86.4031 18.4347C86.1871 18.4259 85.9718 18.464 85.772 18.5463C85.5721 18.6286 85.3924 18.7532 85.2452 18.9115C85.098 19.0698 84.9868 19.2581 84.9193 19.4634C84.8518 19.6688 84.8294 19.8863 84.8539 20.1011V24.3972H83.3672L83.3672 17.1542Z" fill="white"/>
<path d="M93.9281 22.2691C93.7281 23.584 92.4477 24.4863 90.8094 24.4863C88.7023 24.4863 87.3945 23.0746 87.3945 20.8098C87.3945 18.5379 88.7094 17.0645 90.7469 17.0645C92.7508 17.0645 94.0109 18.441 94.0109 20.6371V21.1465H88.8953V21.2363C88.8717 21.5029 88.9051 21.7714 88.9932 22.0241C89.0814 22.2768 89.2223 22.5078 89.4065 22.7018C89.5908 22.8959 89.8143 23.0485 90.0621 23.1495C90.3099 23.2506 90.5763 23.2977 90.8438 23.2879C91.1951 23.3208 91.5477 23.2394 91.849 23.0559C92.1504 22.8723 92.3845 22.5964 92.5164 22.2691L93.9281 22.2691ZM88.9023 20.1074H92.5234C92.5368 19.8677 92.5004 19.6279 92.4167 19.4029C92.333 19.178 92.2036 18.9727 92.0368 18.8001C91.87 18.6275 91.6693 18.4912 91.4473 18.3999C91.2253 18.3085 90.9869 18.264 90.7469 18.2691C90.5048 18.2677 90.2648 18.3142 90.0407 18.406C89.8167 18.4978 89.6131 18.6331 89.4416 18.804C89.2701 18.9749 89.1342 19.178 89.0416 19.4018C88.949 19.6255 88.9017 19.8653 88.9023 20.1074V20.1074Z" fill="white"/>
<path d="M36.6812 6.98491C36.9929 6.96254 37.3057 7.00963 37.597 7.12278C37.8883 7.23592 38.1508 7.41231 38.3657 7.63921C38.5806 7.86611 38.7424 8.13787 38.8395 8.43488C38.9366 8.7319 38.9666 9.04677 38.9273 9.35678C38.9273 10.8818 38.1031 11.7584 36.6812 11.7584H34.957V6.98491H36.6812ZM35.6984 11.0833H36.5984C36.8212 11.0966 37.044 11.0601 37.2509 10.9764C37.4577 10.8927 37.6433 10.764 37.7941 10.5995C37.9449 10.4351 38.0571 10.239 38.1226 10.0258C38.1881 9.81246 38.2052 9.58725 38.1726 9.36651C38.2028 9.14664 38.184 8.92282 38.1175 8.71109C38.051 8.49936 37.9385 8.30496 37.788 8.14182C37.6376 7.97867 37.4529 7.85082 37.2472 7.76744C37.0416 7.68405 36.82 7.64718 36.5984 7.65948H35.6984V11.0833Z" fill="white"/>
<path d="M39.7658 9.95602C39.7432 9.71928 39.7703 9.48043 39.8454 9.25477C39.9204 9.02912 40.0418 8.82164 40.2018 8.64566C40.3617 8.46967 40.5567 8.32906 40.7742 8.23284C40.9917 8.13662 41.2269 8.08691 41.4647 8.08691C41.7025 8.08691 41.9377 8.13662 42.1552 8.23284C42.3726 8.32906 42.5676 8.46967 42.7276 8.64566C42.8875 8.82164 43.0089 9.02912 43.084 9.25477C43.1591 9.48043 43.1861 9.71928 43.1635 9.95602C43.1866 10.193 43.1598 10.4322 43.0849 10.6582C43.0101 10.8842 42.8887 11.0921 42.7287 11.2684C42.5687 11.4447 42.3736 11.5856 42.1559 11.6821C41.9382 11.7785 41.7028 11.8283 41.4647 11.8283C41.2266 11.8283 40.9911 11.7785 40.7734 11.6821C40.5557 11.5856 40.3606 11.4447 40.2006 11.2684C40.0406 11.0921 39.9193 10.8842 39.8444 10.6582C39.7695 10.4322 39.7428 10.193 39.7658 9.95602ZM42.4322 9.95602C42.4322 9.17516 42.0815 8.71852 41.4658 8.71852C40.8479 8.71852 40.5002 9.17516 40.5002 9.95602C40.5002 10.7431 40.8479 11.1963 41.4658 11.1963C42.0815 11.1962 42.4323 10.74 42.4323 9.95602H42.4322Z" fill="white"/>
<path d="M47.6789 11.7586H46.9414L46.1969 9.10547H46.1406L45.3992 11.7586H44.6687L43.6758 8.15625H44.3969L45.0422 10.9051H45.0953L45.8359 8.15625H46.518L47.2586 10.9051H47.3148L47.957 8.15625H48.668L47.6789 11.7586Z" fill="white"/>
<path d="M49.5039 8.15609H50.1883V8.72835H50.2414C50.3315 8.52282 50.4835 8.35052 50.6762 8.23548C50.8689 8.12043 51.0927 8.06837 51.3164 8.08655C51.4917 8.07338 51.6677 8.0998 51.8314 8.16388C51.995 8.22796 52.1422 8.32804 52.262 8.45672C52.3817 8.58539 52.471 8.73936 52.5231 8.90722C52.5753 9.07507 52.589 9.25251 52.5633 9.42639V11.7584H51.8524V9.60492C51.8524 9.02602 51.6008 8.73812 51.075 8.73812C50.956 8.73258 50.8372 8.75283 50.7268 8.7975C50.6163 8.84216 50.5168 8.91018 50.4351 8.99689C50.3534 9.0836 50.2914 9.18694 50.2534 9.29985C50.2154 9.41275 50.2022 9.53254 50.2148 9.65101V11.7584H49.5039L49.5039 8.15609Z" fill="white"/>
<path d="M53.6953 6.75H54.4062V11.7586H53.6953V6.75Z" fill="white"/>
<path d="M55.3947 9.95608C55.3721 9.71933 55.3992 9.48047 55.4743 9.2548C55.5494 9.02914 55.6708 8.82166 55.8308 8.64567C55.9907 8.46968 56.1857 8.32906 56.4032 8.23284C56.6207 8.13662 56.8559 8.08691 57.0938 8.08691C57.3316 8.08691 57.5668 8.13662 57.7843 8.23284C58.0018 8.32906 58.1968 8.46968 58.3567 8.64567C58.5167 8.82166 58.6381 9.02914 58.7132 9.2548C58.7883 9.48047 58.8154 9.71933 58.7928 9.95608C58.8158 10.1931 58.789 10.4323 58.7142 10.6583C58.6393 10.8843 58.5179 11.0921 58.3579 11.2685C58.1979 11.4448 58.0028 11.5857 57.785 11.6821C57.5673 11.7785 57.3319 11.8284 57.0938 11.8284C56.8557 11.8284 56.6202 11.7785 56.4025 11.6821C56.1848 11.5857 55.9896 11.4448 55.8296 11.2685C55.6696 11.0921 55.5483 10.8843 55.4734 10.6583C55.3985 10.4323 55.3717 10.1931 55.3947 9.95608ZM58.0611 9.95608C58.0611 9.17523 57.7104 8.71859 57.0947 8.71859C56.4768 8.71859 56.1291 9.17523 56.1291 9.95609C56.1291 10.7432 56.4768 11.1963 57.0947 11.1963C57.7104 11.1963 58.0611 10.7401 58.0611 9.95608H58.0611Z" fill="white"/>
<path d="M59.543 10.74C59.543 10.0916 60.0258 9.71777 60.8828 9.66464L61.8586 9.60839V9.29746C61.8586 8.91699 61.607 8.70215 61.1211 8.70215C60.7242 8.70215 60.4492 8.84785 60.3703 9.10254H59.682C59.7547 8.48379 60.3367 8.08691 61.1539 8.08691C62.057 8.08691 62.5664 8.53651 62.5664 9.29746V11.7588H61.882V11.2525H61.8258C61.7116 11.4341 61.5513 11.5822 61.3612 11.6815C61.1711 11.7809 60.958 11.828 60.7437 11.8181C60.5925 11.8339 60.4397 11.8177 60.2951 11.7708C60.1505 11.7238 60.0173 11.6471 59.9042 11.5455C59.791 11.4439 59.7004 11.3198 59.6382 11.181C59.576 11.0423 59.5436 10.8921 59.543 10.74ZM61.8586 10.4322V10.1311L60.9789 10.1873C60.4828 10.2205 60.2578 10.3893 60.2578 10.7068C60.2578 11.031 60.5391 11.2197 60.9258 11.2197C61.0391 11.2312 61.1536 11.2197 61.2624 11.1861C61.3712 11.1524 61.4721 11.0972 61.5591 11.0237C61.6462 10.9502 61.7175 10.86 61.769 10.7584C61.8204 10.6568 61.8509 10.5459 61.8586 10.4322Z" fill="white"/>
<path d="M63.5 9.95587C63.5 8.81759 64.0852 8.0965 64.9953 8.0965C65.2204 8.08612 65.4439 8.14005 65.6395 8.25196C65.8351 8.36388 65.9948 8.52916 66.1 8.7285H66.1531V6.75H66.8641V11.7586H66.1828V11.1894H66.1266C66.0133 11.3874 65.848 11.5507 65.6486 11.6615C65.4492 11.7722 65.2233 11.8264 64.9953 11.818C64.0789 11.818 63.5 11.0969 63.5 9.95587ZM64.2344 9.95587C64.2344 10.7199 64.5946 11.1797 65.1969 11.1797C65.7961 11.1797 66.1664 10.7133 66.1664 9.959C66.1664 9.20822 65.7922 8.73517 65.1969 8.73517C64.5984 8.73517 64.2344 9.19806 64.2344 9.95587H64.2344Z" fill="white"/>
<path d="M69.8049 9.95602C69.7823 9.71928 69.8093 9.48043 69.8844 9.25477C69.9595 9.02912 70.0809 8.82164 70.2408 8.64566C70.4008 8.46967 70.5958 8.32906 70.8132 8.23284C71.0307 8.13662 71.2659 8.08691 71.5037 8.08691C71.7416 8.08691 71.9767 8.13662 72.1942 8.23284C72.4117 8.32906 72.6067 8.46967 72.7666 8.64566C72.9266 8.82164 73.048 9.02912 73.1231 9.25477C73.1981 9.48043 73.2252 9.71928 73.2026 9.95602C73.2256 10.193 73.1989 10.4322 73.124 10.6582C73.0491 10.8842 72.9278 11.0921 72.7678 11.2684C72.6078 11.4447 72.4127 11.5856 72.195 11.6821C71.9773 11.7785 71.7418 11.8283 71.5037 11.8283C71.2656 11.8283 71.0302 11.7785 70.8125 11.6821C70.5948 11.5856 70.3997 11.4447 70.2397 11.2684C70.0797 11.0921 69.9583 10.8842 69.8835 10.6582C69.8086 10.4322 69.7818 10.193 69.8049 9.95602ZM72.4713 9.95602C72.4713 9.17516 72.1205 8.71852 71.5049 8.71852C70.8869 8.71852 70.5393 9.17516 70.5393 9.95602C70.5393 10.7431 70.887 11.1963 71.5049 11.1963C72.1205 11.1962 72.4713 10.74 72.4713 9.95602Z" fill="white"/>
<path d="M74.1562 8.15609H74.8406V8.72835H74.8938C74.9839 8.52282 75.1359 8.35052 75.3286 8.23548C75.5213 8.12043 75.7451 8.06837 75.9688 8.08655C76.144 8.07338 76.32 8.0998 76.4837 8.16388C76.6474 8.22796 76.7946 8.32804 76.9143 8.45672C77.034 8.58539 77.1233 8.73936 77.1755 8.90722C77.2276 9.07507 77.2413 9.25251 77.2156 9.42639V11.7584H76.5047V9.60492C76.5047 9.02602 76.2531 8.73812 75.7273 8.73812C75.6083 8.73258 75.4895 8.75283 75.3791 8.7975C75.2686 8.84216 75.1692 8.91018 75.0875 8.99689C75.0058 9.0836 74.9438 9.18694 74.9058 9.29985C74.8677 9.41275 74.8546 9.53254 74.8672 9.65101V11.7584H74.1562V8.15609Z" fill="white"/>
<path d="M81.2328 7.25977V8.17304H82.0133V8.77188H81.2328V10.6242C81.2328 11.0016 81.3883 11.1668 81.7422 11.1668C81.8328 11.1665 81.9233 11.161 82.0133 11.1504V11.7426C81.8856 11.7654 81.7563 11.7776 81.6266 11.7789C80.8359 11.7789 80.5211 11.5008 80.5211 10.8062V8.77184H79.9492V8.17301H80.5211V7.25977H81.2328Z" fill="white"/>
<path d="M82.9844 6.75H83.6891V8.73516H83.7453C83.8398 8.5277 83.996 8.35443 84.1925 8.23895C84.3891 8.12347 84.6165 8.07141 84.8437 8.08985C85.0181 8.08036 85.1924 8.10947 85.3542 8.1751C85.516 8.24074 85.6614 8.34128 85.7799 8.46955C85.8984 8.59782 85.9871 8.75066 86.0397 8.91717C86.0924 9.08367 86.1076 9.25974 86.0843 9.43282V11.7586H85.3727V9.6082C85.3727 9.03281 85.1047 8.7414 84.6024 8.7414C84.4802 8.73138 84.3573 8.74818 84.2423 8.79062C84.1272 8.83306 84.0229 8.90012 83.9365 8.98711C83.8501 9.0741 83.7837 9.17892 83.7421 9.29423C83.7004 9.40954 83.6845 9.53256 83.6953 9.65468V11.7586H82.9844L82.9844 6.75Z" fill="white"/>
<path d="M90.2306 10.7862C90.134 11.1154 89.9247 11.4002 89.6394 11.5907C89.354 11.7812 89.0108 11.8654 88.6697 11.8284C88.4323 11.8346 88.1965 11.7892 87.9785 11.6952C87.7605 11.6011 87.5655 11.4608 87.4072 11.2839C87.2489 11.107 87.131 10.8977 87.0616 10.6707C86.9923 10.4436 86.9731 10.2042 87.0056 9.96901C86.974 9.7331 86.9934 9.49315 87.0626 9.26541C87.1318 9.03768 87.2491 8.82746 87.4066 8.649C87.5641 8.47055 87.7581 8.32801 87.9755 8.23104C88.1929 8.13408 88.4285 8.08494 88.6665 8.08697C89.6689 8.08697 90.2736 8.77177 90.2736 9.90297V10.151H87.7298V10.1909C87.7187 10.3231 87.7353 10.4561 87.7786 10.5815C87.8219 10.7069 87.8909 10.8219 87.9812 10.9191C88.0716 11.0162 88.1812 11.0935 88.3031 11.1458C88.425 11.1981 88.5565 11.2244 88.6892 11.2229C88.8592 11.2433 89.0315 11.2127 89.1841 11.1349C89.3368 11.0571 89.4628 10.9358 89.5462 10.7862L90.2306 10.7862ZM87.7298 9.62525H89.5493C89.5583 9.50435 89.5419 9.38291 89.5011 9.26874C89.4603 9.15456 89.3961 9.05018 89.3126 8.96229C89.2291 8.87441 89.1281 8.80496 89.0162 8.75842C88.9042 8.71188 88.7838 8.68928 88.6626 8.69205C88.5396 8.69051 88.4176 8.7136 88.3037 8.75995C88.1898 8.80631 88.0864 8.87499 87.9994 8.96196C87.9125 9.04894 87.8439 9.15243 87.7976 9.26635C87.7512 9.38026 87.7282 9.5023 87.7298 9.62525H87.7298Z" fill="white"/>
</g>
<defs>
<clipPath id="clip0">
<rect width="108" height="32" fill="white"/>
</clipPath>
</defs>
</svg>
