<svg width="149" height="53" viewBox="0 0 149 53" fill="none" xmlns="http://www.w3.org/2000/svg">
<path d="M141.111 40.5241C141.111 42.6554 139.385 44.3816 137.25 44.3816H10.8782C8.744 44.3816 7.01172 42.6554 7.01172 40.5241V9.7615C7.01172 7.63129 8.74409 5.89893 10.8782 5.89893H137.249C139.385 5.89893 141.11 7.63129 141.11 9.7615L141.111 40.5241Z" fill="white"/>
<path d="M137.25 45.2795H10.8782C8.25249 45.2795 6.11523 43.1473 6.11523 40.5246V9.76292C6.11523 7.13818 8.25249 5.00293 10.8782 5.00293H137.249C139.871 5.00293 142.012 7.13818 142.012 9.76292V40.5246C142.014 43.1473 139.873 45.2795 137.25 45.2795Z" fill="#B4E4E1"/>
<path d="M141.111 40.5241C141.111 42.6554 139.385 44.3816 137.25 44.3816H10.8782C8.744 44.3816 7.01172 42.6554 7.01172 40.5241V9.7615C7.01172 7.63129 8.74409 5.89893 10.8782 5.89893H137.249C139.385 5.89893 141.11 7.63129 141.11 9.7615L141.111 40.5241Z" fill="white"/>
<path d="M36.4607 24.9292C36.4314 21.6831 39.1186 20.1038 39.2415 20.0302C37.7196 17.8114 35.3609 17.5082 34.532 17.4841C32.5508 17.2756 30.6291 18.6695 29.6199 18.6695C28.5905 18.6695 27.0364 17.5042 25.3615 17.5385C23.2061 17.5717 21.1898 18.8196 20.0838 20.7574C17.8016 24.7087 19.5037 30.5151 21.6903 33.7089C22.7841 35.2741 24.0623 37.0196 25.7351 36.9581C27.3718 36.8917 27.9832 35.9157 29.9583 35.9157C31.9152 35.9157 32.4894 36.9581 34.1955 36.9189C35.9521 36.8917 37.0579 35.3476 38.1135 33.7694C39.3776 31.9776 39.8851 30.211 39.9053 30.1203C39.865 30.1062 36.4949 28.819 36.4607 24.9292ZM33.2376 15.3831C34.1178 14.2822 34.7202 12.7845 34.553 11.2646C33.2788 11.3211 31.6856 12.1459 30.7679 13.2226C29.9561 14.1714 29.2309 15.7265 29.4183 17.189C30.8496 17.2957 32.3191 16.4668 33.2376 15.3831Z" fill="#00A69C"/>
<path d="M60.1674 36.7333H57.88L56.6271 32.7962H52.2719L51.0784 36.7333H48.8516L53.1674 23.3296H55.8324L60.1674 36.7333ZM56.2495 31.1444L55.1164 27.6444C54.9965 27.2869 54.7709 26.4448 54.4405 25.1194H54.4003C54.2673 25.6894 54.0548 26.5315 53.7637 27.6444L52.6498 31.1444H56.2495ZM71.2445 31.782C71.2445 33.4257 70.7983 34.725 69.9049 35.6789C69.1053 36.5278 68.1112 36.952 66.9256 36.952C65.6455 36.952 64.7249 36.4956 64.1659 35.5812V40.6524H62.0186V30.245C62.0186 29.2125 61.9915 28.154 61.9391 27.0683H63.8276L63.9474 28.6002H63.9876C64.7037 27.446 65.7905 26.8688 67.2489 26.8688C68.3891 26.8688 69.3409 27.319 70.1023 28.2204C70.8627 29.124 71.2445 30.3104 71.2445 31.782ZM69.0568 31.8605C69.0568 30.9198 68.8453 30.1443 68.4203 29.5329C67.956 28.8974 67.3325 28.5792 66.5509 28.5792C66.0212 28.5792 65.5397 28.7563 65.1096 29.1058C64.6786 29.4584 64.3966 29.9186 64.2647 30.4887C64.1982 30.7546 64.165 30.9712 64.165 31.1425V32.7549C64.165 33.4569 64.3805 34.0502 64.8116 34.5357C65.2427 35.0192 65.8027 35.2618 66.4916 35.2618C67.3005 35.2618 67.93 34.9487 68.3801 34.3271C68.8312 33.7037 69.0568 32.8818 69.0568 31.8605ZM82.3608 31.782C82.3608 33.4257 81.9146 34.725 81.0213 35.6789C80.2205 36.5278 79.2275 36.952 78.041 36.952C76.7608 36.952 75.8403 36.4956 75.2813 35.5812V40.6524H73.1339V30.245C73.1339 29.2125 73.1068 28.154 73.0544 27.0683H74.9429L75.0627 28.6002H75.103C75.8181 27.446 76.9049 26.8688 78.3642 26.8688C79.5033 26.8688 80.4551 27.319 81.2187 28.2204C81.9782 29.124 82.3608 30.3104 82.3608 31.782ZM80.1722 31.8605C80.1722 30.9198 79.9598 30.1443 79.5346 29.5329C79.0703 28.8974 78.4489 28.5792 77.6673 28.5792C77.1375 28.5792 76.6561 28.7563 76.224 29.1058C75.7929 29.4584 75.512 29.9186 75.38 30.4887C75.3145 30.7546 75.2793 30.9712 75.2793 31.1425V32.7549C75.2793 33.4569 75.4958 34.0502 75.9249 34.5357C76.3559 35.0181 76.9159 35.2618 77.6069 35.2618C78.4166 35.2618 79.0461 34.9487 79.4954 34.3271C79.9466 33.7037 80.1722 32.8818 80.1722 31.8605ZM94.7896 32.9735C94.7896 34.1146 94.3907 35.0422 93.5981 35.7584C92.7258 36.5399 91.5082 36.9317 89.947 36.9317C88.5047 36.9317 87.3484 36.6537 86.4762 36.0968L86.9728 34.307C87.9145 34.865 88.9489 35.143 90.0749 35.143C90.8847 35.143 91.5142 34.9596 91.9634 34.5961C92.4135 34.2314 92.6412 33.744 92.6412 33.1356C92.6412 32.5908 92.4529 32.1345 92.0832 31.7629C91.7116 31.3923 91.0972 31.0468 90.2341 30.7295C87.8873 29.8543 86.7129 28.5741 86.7129 26.8901C86.7129 25.7903 87.1279 24.8898 87.9559 24.1858C88.7838 23.4828 89.8816 23.1313 91.2474 23.1313C92.4671 23.1313 93.4833 23.3439 94.2901 23.7679L93.7512 25.5183C92.9918 25.1074 92.1346 24.9019 91.1758 24.9019C90.4184 24.9019 89.8241 25.0882 89.3991 25.4589C89.0415 25.7903 88.8602 26.1942 88.8602 26.6736C88.8602 27.2024 89.0668 27.6416 89.4776 27.986C89.8342 28.3032 90.4848 28.6487 91.4256 29.0194C92.5798 29.4847 93.4278 30.0266 93.9707 30.649C94.5176 31.2713 94.7896 32.0479 94.7896 32.9735ZM101.907 28.6798H99.5405V33.3723C99.5405 34.5658 99.9575 35.1611 100.794 35.1611C101.177 35.1611 101.496 35.1288 101.747 35.0614L101.807 36.692C101.384 36.8502 100.827 36.9297 100.137 36.9297C99.2887 36.9297 98.626 36.6709 98.1475 36.1532C97.6711 35.6355 97.4315 34.7683 97.4315 33.5476V28.6758H96.0214V27.0643H97.4315V25.2946L99.5405 24.6581V27.0643H101.907V28.6798ZM112.565 31.8212C112.565 33.3068 112.141 34.5265 111.292 35.4804C110.405 36.4624 109.225 36.9519 107.753 36.9519C106.333 36.9519 105.204 36.4815 104.362 35.5418C103.52 34.6 103.099 33.4136 103.099 31.9824C103.099 30.4846 103.534 29.2579 104.401 28.3041C105.27 27.3493 106.441 26.872 107.912 26.872C109.33 26.872 110.47 27.3433 111.332 28.284C112.156 29.1965 112.565 30.3749 112.565 31.8212ZM110.34 31.8706C110.34 30.9852 110.148 30.2258 109.764 29.5902C109.314 28.8227 108.67 28.4391 107.835 28.4391C106.975 28.4391 106.315 28.8227 105.866 29.5902C105.481 30.2258 105.29 30.9983 105.29 31.9108C105.29 32.7972 105.481 33.5586 105.866 34.1922C106.33 34.9596 106.978 35.3434 107.817 35.3434C108.637 35.3434 109.281 34.9516 109.746 34.173C110.141 33.5224 110.34 32.7579 110.34 31.8706ZM119.548 28.9568C119.336 28.9174 119.108 28.8973 118.872 28.8973C118.116 28.8973 117.532 29.1814 117.121 29.7534C116.765 30.257 116.585 30.8935 116.585 31.662V36.7332H114.438V30.112C114.438 28.9991 114.417 27.9838 114.375 27.0693H116.246L116.324 28.9184H116.384C116.612 28.283 116.968 27.7702 117.458 27.3865C117.936 27.0411 118.453 26.8688 119.01 26.8688C119.208 26.8688 119.387 26.8829 119.547 26.9082L119.548 28.9568ZM129.152 31.4435C129.152 31.8283 129.127 32.1525 129.073 32.4175H122.631C122.656 33.3723 122.968 34.1035 123.566 34.6071C124.109 35.0564 124.811 35.2819 125.673 35.2819C126.627 35.2819 127.497 35.1309 128.28 34.8257L128.616 36.3153C127.702 36.7142 126.622 36.9126 125.376 36.9126C123.877 36.9126 122.701 36.4714 121.845 35.5912C120.991 34.7099 120.563 33.5254 120.563 32.0418C120.563 30.5853 120.961 29.3717 121.757 28.4038C122.591 27.3705 123.718 26.8537 125.136 26.8537C126.529 26.8537 127.584 27.3704 128.3 28.4038C128.867 29.2227 129.152 30.2379 129.152 31.4435ZM127.104 30.8866C127.119 30.249 126.978 29.7001 126.687 29.2358C126.316 28.6375 125.744 28.3394 124.977 28.3394C124.275 28.3394 123.703 28.6304 123.268 29.2146C122.91 29.6789 122.698 30.2369 122.632 30.8845L127.104 30.8866Z" fill="#00A69C"/>
<path d="M55.2132 18.5325H54.0881L53.4727 16.5977H51.3324L50.7452 18.5325H49.6504L51.7715 11.9445H53.0809L55.2132 18.5325ZM53.2874 15.7859L52.7304 14.0656C52.672 13.8894 52.5642 13.4794 52.398 12.8248H52.3779C52.3094 13.1078 52.2117 13.5187 52.0646 14.0656L51.5177 15.7859H53.2874ZM60.517 13.7826L58.7181 18.5325H57.6917L55.9514 13.7826H57.0855L57.8973 16.2945C58.0343 16.7145 58.1511 17.1154 58.2387 17.4961H58.2679C58.3466 17.1547 58.4633 16.7538 58.6094 16.2945L59.4111 13.7826H60.517ZM64.3463 18.5325L64.2678 17.9855H64.2385C63.9162 18.4257 63.4468 18.6402 62.8506 18.6402C62.0005 18.6402 61.3942 18.0439 61.3942 17.2422C61.3942 16.0698 62.4104 15.4635 64.17 15.4635V15.3759C64.17 14.7504 63.8376 14.4372 63.1829 14.4372C62.7135 14.4372 62.3026 14.555 61.9421 14.7897L61.7275 14.0957C62.1676 13.8218 62.7146 13.6848 63.3601 13.6848C64.601 13.6848 65.2274 14.3395 65.2274 15.6498V17.3993C65.2274 17.8788 65.2476 18.2504 65.2959 18.5334L64.3463 18.5325ZM64.1993 16.1666C63.026 16.1666 62.4397 16.4506 62.4397 17.1245C62.4397 17.623 62.7429 17.8668 63.1629 17.8668C63.7006 17.8668 64.1993 17.4568 64.1993 16.8998V16.1666ZM67.5784 13C67.2269 13 66.9529 12.726 66.9529 12.3645C66.9529 12.0029 67.236 11.739 67.5985 11.739C67.9601 11.739 68.2532 12.0029 68.2432 12.3645C68.2432 12.7462 67.9703 13 67.5784 13ZM68.1263 18.5325H67.0708V13.7826H68.1263V18.5325ZM71.0572 18.5325H70.0017V11.603H71.0572V18.5325ZM75.5433 18.5325L75.4646 17.9855H75.4355C75.1132 18.4257 74.6438 18.6402 74.0476 18.6402C73.1975 18.6402 72.5912 18.0439 72.5912 17.2422C72.5912 16.0698 73.6074 15.4635 75.3669 15.4635V15.3759C75.3669 14.7504 75.0346 14.4372 74.3799 14.4372C73.9105 14.4372 73.4996 14.555 73.139 14.7897L72.9236 14.0947C73.3637 13.8208 73.9106 13.6838 74.5562 13.6838C75.7971 13.6838 76.4235 14.3385 76.4235 15.6488V17.3983C76.4235 17.8777 76.4447 18.2494 76.491 18.5324H75.5433V18.5325ZM75.3962 16.1666C74.2228 16.1666 73.6367 16.4506 73.6367 17.1245C73.6367 17.623 73.9397 17.8668 74.3597 17.8668C74.8976 17.8668 75.3962 17.4568 75.3962 16.8998V16.1666ZM80.7002 18.6403C80.0264 18.6403 79.5287 18.3562 79.2064 17.7993H79.1853L79.1248 18.5325H78.2254C78.2546 18.1518 78.2647 17.7207 78.2647 17.2524V11.603H79.3212V14.4776H79.3414C79.6545 13.9498 80.1613 13.6859 80.8562 13.6859C82.0004 13.6859 82.8021 14.6639 82.8021 16.0901C82.8021 17.5646 81.9117 18.6403 80.7002 18.6403ZM80.4856 14.5148C79.8782 14.5148 79.3223 15.0426 79.3223 15.7758V16.6068C79.3223 17.2614 79.8218 17.7993 80.4675 17.7993C81.2582 17.7993 81.7285 17.1547 81.7285 16.1283C81.7274 15.1705 81.2379 14.5148 80.4856 14.5148ZM85.4178 18.5325H84.3633V11.603H85.4178V18.5325ZM91.1639 16.4114H87.9953C88.0164 17.3108 88.6106 17.8184 89.4909 17.8184C89.9602 17.8184 90.3903 17.7398 90.771 17.5938L90.9352 18.327C90.486 18.5224 89.9582 18.6201 89.3428 18.6201C87.8562 18.6201 86.9769 17.6814 86.9769 16.226C86.9769 14.7696 87.8774 13.6748 89.2239 13.6748C90.4357 13.6748 91.199 14.5742 91.199 15.9329C91.2031 16.1183 91.194 16.2845 91.1639 16.4114ZM90.1959 15.659C90.1959 14.9258 89.8242 14.4081 89.1494 14.4081C88.543 14.4081 88.0657 14.9358 87.9952 15.659H90.1959ZM97.5615 18.6403C96.1736 18.6403 95.2742 17.6039 95.2742 16.1968C95.2742 14.7304 96.1927 13.6849 97.641 13.6849C99.0077 13.6849 99.9284 14.6719 99.9284 16.1193C99.9285 17.6039 98.9796 18.6403 97.5615 18.6403ZM97.6018 14.4564C96.8393 14.4564 96.3509 15.1695 96.3509 16.1666C96.3509 17.1446 96.8495 17.8577 97.5918 17.8577C98.3341 17.8577 98.8315 17.0952 98.8315 16.1465C98.8326 15.1796 98.3441 14.4564 97.6018 14.4564ZM105.603 18.5325H104.548V15.805C104.548 14.965 104.226 14.544 103.591 14.544C102.965 14.544 102.534 15.0819 102.534 15.7073V18.5325H101.48V15.1403C101.48 14.7203 101.468 14.2701 101.44 13.7816H102.369L102.418 14.5148H102.447C102.729 14.0072 103.308 13.6839 103.952 13.6839C104.948 13.6839 105.603 14.4463 105.603 15.6872V18.5325H105.603ZM112.509 14.5742H111.348V16.8807C111.348 17.4679 111.552 17.761 111.962 17.761C112.149 17.761 112.306 17.7409 112.432 17.7116L112.461 18.5134C112.255 18.592 111.98 18.6312 111.641 18.6312C110.809 18.6312 110.313 18.1719 110.313 16.9693V14.5742H109.62V13.7826H110.313V12.9124L111.348 12.5991V13.7816H112.509V14.5742ZM118.099 18.5325H117.043V15.8252C117.043 14.9751 116.72 14.545 116.085 14.545C115.538 14.545 115.03 14.9167 115.03 15.6691V18.5325H113.974V11.603H115.03V14.4564H115.05C115.383 13.9387 115.862 13.6839 116.478 13.6839C117.484 13.6839 118.099 14.4655 118.099 15.7073V18.5325ZM123.493 16.4114H120.325C120.345 17.3108 120.939 17.8184 121.82 17.8184C122.29 17.8184 122.719 17.7398 123.1 17.5938L123.265 18.327C122.816 18.5224 122.287 18.6201 121.672 18.6201C120.185 18.6201 119.306 17.6814 119.306 16.226C119.306 14.7696 120.206 13.6748 121.553 13.6748C122.765 13.6748 123.528 14.5742 123.528 15.9329C123.532 16.1183 123.522 16.2845 123.493 16.4114ZM122.525 15.659C122.525 14.9258 122.154 14.4081 121.479 14.4081C120.872 14.4081 120.395 14.9358 120.325 15.659H122.525Z" fill="#00A69C"/>
</svg>
