<svg width="16" height="10" viewBox="0 0 16 10" fill="none" xmlns="http://www.w3.org/2000/svg">
<mask id="path-1-outside-1" maskUnits="userSpaceOnUse" x="-0.304688" y="-0.293152" width="17" height="11" fill="black">
<rect fill="white" x="-0.304688" y="-0.293152" width="17" height="11"/>
<path fill-rule="evenodd" clip-rule="evenodd" d="M10.8351 1.80838C10.7761 1.19026 10.256 0.706848 9.62325 0.706848H3.13049L3.05755 0.713394C2.86825 0.747797 2.7247 0.913691 2.7247 1.11316C2.7247 1.33755 2.90638 1.51946 3.13049 1.51946H9.62325L9.69619 1.52601C9.8855 1.56041 10.029 1.72631 10.029 1.92577V2.72026C10.0288 2.72627 10.0287 2.73232 10.0287 2.73839V5.17624V8.02039H6.78267L6.71508 8.02645C6.54968 7.54986 6.09716 7.20778 5.56484 7.20778C5.03274 7.20778 4.58036 7.54959 4.4148 8.02589C4.39303 8.02227 4.37068 8.02039 4.34789 8.02039H3.1305L3.05755 8.02693C2.86825 8.06135 2.7247 8.22732 2.7247 8.42687C2.7247 8.65136 2.90638 8.83335 3.1305 8.83335H4.34789L4.41474 8.82734C4.58025 9.30373 5.03267 9.64562 5.56484 9.64562C6.09701 9.64562 6.54942 9.30374 6.71494 8.82737C6.73696 8.83107 6.75959 8.833 6.78267 8.833H10.4329C10.4334 8.833 10.4339 8.833 10.4344 8.833H11.7207C11.8878 9.30643 12.3387 9.64562 12.8688 9.64562C13.3989 9.64562 13.8498 9.30643 14.0169 8.833H14.4924L14.6097 8.82743C15.227 8.76836 15.7098 8.24767 15.7098 7.61408V5.98885L15.7042 5.87146C15.6453 5.25334 15.1252 4.76993 14.4924 4.76993H14.0866V3.55101C14.0866 2.87782 13.5416 2.33209 12.8692 2.33209H10.8406V1.92577L10.8351 1.80838ZM10.8406 4.76993V3.14504H12.8694L12.9424 3.15159C13.1317 3.18599 13.2752 3.35188 13.2752 3.55135V4.76993H10.8406ZM10.8406 8.02039V5.58254L13.6808 5.58255L13.6825 5.58254H14.4924L14.5654 5.58909C14.7547 5.62349 14.8982 5.78939 14.8982 5.98885V7.61408L14.8917 7.68712C14.8573 7.87666 14.6916 8.02039 14.4924 8.02039H14.0169C13.8498 7.54697 13.3989 7.20778 12.8688 7.20778C12.3387 7.20778 11.8878 7.54697 11.7207 8.02039H10.8406ZM7.18807 5.58254C7.41219 5.58254 7.59387 5.76453 7.59387 5.98902C7.59387 6.18857 7.45032 6.35454 7.26101 6.38895L7.18807 6.3955H1.10111C0.876994 6.3955 0.695312 6.21351 0.695312 5.98902C0.695312 5.78947 0.838863 5.62351 1.02817 5.58909L1.10111 5.58254H7.18807ZM7.59427 4.36378C7.59427 4.13929 7.41259 3.9573 7.18847 3.9573H3.1305L3.05755 3.96385C2.86825 3.99827 2.7247 4.16424 2.7247 4.36378C2.7247 4.58828 2.90638 4.77026 3.1305 4.77026H7.18847L7.26141 4.76372C7.45072 4.7293 7.59427 4.56333 7.59427 4.36378ZM7.18807 2.33209C7.41219 2.33209 7.59387 2.51407 7.59387 2.73857C7.59387 2.93812 7.45032 3.10408 7.26101 3.1385L7.18807 3.14505H1.10111C0.876994 3.14505 0.695312 2.96306 0.695312 2.73857C0.695312 2.53902 0.838863 2.37305 1.02817 2.33863L1.10111 2.33209H7.18807ZM5.97083 8.42721C5.97083 8.20272 5.78915 8.02073 5.56504 8.02073C5.34092 8.02073 5.15924 8.20272 5.15924 8.42721C5.15924 8.6517 5.34092 8.83369 5.56504 8.83369C5.78915 8.83369 5.97083 8.6517 5.97083 8.42721ZM13.2748 8.42721C13.2748 8.20272 13.0931 8.02073 12.869 8.02073C12.6449 8.02073 12.4632 8.20272 12.4632 8.42721C12.4632 8.6517 12.6449 8.83369 12.869 8.83369C13.0931 8.83369 13.2748 8.6517 13.2748 8.42721Z"/>
</mask>
<path fill-rule="evenodd" clip-rule="evenodd" d="M10.8351 1.80838C10.7761 1.19026 10.256 0.706848 9.62325 0.706848H3.13049L3.05755 0.713394C2.86825 0.747797 2.7247 0.913691 2.7247 1.11316C2.7247 1.33755 2.90638 1.51946 3.13049 1.51946H9.62325L9.69619 1.52601C9.8855 1.56041 10.029 1.72631 10.029 1.92577V2.72026C10.0288 2.72627 10.0287 2.73232 10.0287 2.73839V5.17624V8.02039H6.78267L6.71508 8.02645C6.54968 7.54986 6.09716 7.20778 5.56484 7.20778C5.03274 7.20778 4.58036 7.54959 4.4148 8.02589C4.39303 8.02227 4.37068 8.02039 4.34789 8.02039H3.1305L3.05755 8.02693C2.86825 8.06135 2.7247 8.22732 2.7247 8.42687C2.7247 8.65136 2.90638 8.83335 3.1305 8.83335H4.34789L4.41474 8.82734C4.58025 9.30373 5.03267 9.64562 5.56484 9.64562C6.09701 9.64562 6.54942 9.30374 6.71494 8.82737C6.73696 8.83107 6.75959 8.833 6.78267 8.833H10.4329C10.4334 8.833 10.4339 8.833 10.4344 8.833H11.7207C11.8878 9.30643 12.3387 9.64562 12.8688 9.64562C13.3989 9.64562 13.8498 9.30643 14.0169 8.833H14.4924L14.6097 8.82743C15.227 8.76836 15.7098 8.24767 15.7098 7.61408V5.98885L15.7042 5.87146C15.6453 5.25334 15.1252 4.76993 14.4924 4.76993H14.0866V3.55101C14.0866 2.87782 13.5416 2.33209 12.8692 2.33209H10.8406V1.92577L10.8351 1.80838ZM10.8406 4.76993V3.14504H12.8694L12.9424 3.15159C13.1317 3.18599 13.2752 3.35188 13.2752 3.55135V4.76993H10.8406ZM10.8406 8.02039V5.58254L13.6808 5.58255L13.6825 5.58254H14.4924L14.5654 5.58909C14.7547 5.62349 14.8982 5.78939 14.8982 5.98885V7.61408L14.8917 7.68712C14.8573 7.87666 14.6916 8.02039 14.4924 8.02039H14.0169C13.8498 7.54697 13.3989 7.20778 12.8688 7.20778C12.3387 7.20778 11.8878 7.54697 11.7207 8.02039H10.8406ZM7.18807 5.58254C7.41219 5.58254 7.59387 5.76453 7.59387 5.98902C7.59387 6.18857 7.45032 6.35454 7.26101 6.38895L7.18807 6.3955H1.10111C0.876994 6.3955 0.695312 6.21351 0.695312 5.98902C0.695312 5.78947 0.838863 5.62351 1.02817 5.58909L1.10111 5.58254H7.18807ZM7.59427 4.36378C7.59427 4.13929 7.41259 3.9573 7.18847 3.9573H3.1305L3.05755 3.96385C2.86825 3.99827 2.7247 4.16424 2.7247 4.36378C2.7247 4.58828 2.90638 4.77026 3.1305 4.77026H7.18847L7.26141 4.76372C7.45072 4.7293 7.59427 4.56333 7.59427 4.36378ZM7.18807 2.33209C7.41219 2.33209 7.59387 2.51407 7.59387 2.73857C7.59387 2.93812 7.45032 3.10408 7.26101 3.1385L7.18807 3.14505H1.10111C0.876994 3.14505 0.695312 2.96306 0.695312 2.73857C0.695312 2.53902 0.838863 2.37305 1.02817 2.33863L1.10111 2.33209H7.18807ZM5.97083 8.42721C5.97083 8.20272 5.78915 8.02073 5.56504 8.02073C5.34092 8.02073 5.15924 8.20272 5.15924 8.42721C5.15924 8.6517 5.34092 8.83369 5.56504 8.83369C5.78915 8.83369 5.97083 8.6517 5.97083 8.42721ZM13.2748 8.42721C13.2748 8.20272 13.0931 8.02073 12.869 8.02073C12.6449 8.02073 12.4632 8.20272 12.4632 8.42721C12.4632 8.6517 12.6449 8.83369 12.869 8.83369C13.0931 8.83369 13.2748 8.6517 13.2748 8.42721Z" fill="#00A69C"/>
<path d="M10.8351 1.80838L10.9551 1.80268L10.9545 1.79698L10.8351 1.80838ZM3.13049 0.706848V0.586366L3.11977 0.587328L3.13049 0.706848ZM3.05755 0.713394L3.04678 0.593386L3.0361 0.595328L3.05755 0.713394ZM9.62325 1.51946L9.63402 1.39946H9.62325V1.51946ZM9.69619 1.52601L9.71774 1.40746L9.70692 1.40649L9.69619 1.52601ZM10.029 2.72026L10.149 2.72552V2.72026H10.029ZM10.0287 8.02039V8.14039H10.1487V8.02039H10.0287ZM6.78267 8.02039V7.8999L6.77194 7.90087L6.78267 8.02039ZM6.71508 8.02645L6.60172 8.0658L6.63245 8.15435L6.72581 8.14597L6.71508 8.02645ZM4.4148 8.02589L4.39513 8.14426L4.49493 8.16085L4.52815 8.06529L4.4148 8.02589ZM3.1305 8.02039V7.8999L3.11977 7.90087L3.1305 8.02039ZM3.05755 8.02693L3.04678 7.90693L3.03609 7.90887L3.05755 8.02693ZM4.34789 8.83335V8.95383L4.35862 8.95287L4.34789 8.83335ZM4.41474 8.82734L4.52809 8.78796L4.49734 8.69945L4.40401 8.70783L4.41474 8.82734ZM6.71494 8.82737L6.73485 8.70903L6.63486 8.69221L6.60159 8.78798L6.71494 8.82737ZM10.4329 8.833L10.4334 8.713H10.4329V8.833ZM11.7207 8.833L11.8338 8.79306L11.8056 8.71301H11.7207V8.833ZM14.0169 8.833V8.71301H13.932L13.9038 8.79306L14.0169 8.833ZM14.4924 8.833V8.95314L14.4981 8.95287L14.4924 8.833ZM14.6097 8.82743L14.6154 8.94743L14.6211 8.94688L14.6097 8.82743ZM15.7098 5.98885H15.8299L15.8297 5.98316L15.7098 5.98885ZM15.7042 5.87146L15.8242 5.86576L15.8237 5.86006L15.7042 5.87146ZM14.0866 4.76993H13.9666V4.88993H14.0866V4.76993ZM10.8406 2.33209H10.7206V2.45209H10.8406V2.33209ZM10.8406 1.92577H10.9608L10.9605 1.92008L10.8406 1.92577ZM10.8406 3.14504V3.02504H10.7206V3.14504H10.8406ZM10.8406 4.76993H10.7206V4.88993H10.8406V4.76993ZM12.8694 3.14504L12.8802 3.02504H12.8694V3.14504ZM12.9424 3.15159L12.9639 3.03304L12.9531 3.03207L12.9424 3.15159ZM13.2752 4.76993V4.88993H13.3952V4.76993H13.2752ZM10.8406 5.58254V5.46254L10.7206 5.46254V5.58254H10.8406ZM10.8406 8.02039H10.7206V8.14039H10.8406V8.02039ZM13.6808 5.58255V5.70255L13.6811 5.70255L13.6808 5.58255ZM13.6825 5.58254V5.46254L13.6822 5.46254L13.6825 5.58254ZM14.4924 5.58254L14.5032 5.46254H14.4924V5.58254ZM14.5654 5.58909L14.5869 5.47054L14.5761 5.46957L14.5654 5.58909ZM14.8982 7.61408L15.0182 7.62482V7.61408H14.8982ZM14.8917 7.68712L15.0102 7.70861L15.0112 7.69781L14.8917 7.68712ZM14.0169 8.02039L13.9038 8.06034L13.932 8.14039H14.0169V8.02039ZM11.7207 8.02039V8.14039H11.8056L11.8338 8.06034L11.7207 8.02039ZM7.26101 6.38895L7.27179 6.50896L7.28248 6.50702L7.26101 6.38895ZM7.18807 6.3955V6.51599L7.1988 6.51502L7.18807 6.3955ZM1.02817 5.58909L1.01739 5.46908L1.0067 5.47103L1.02817 5.58909ZM1.10111 5.58254V5.46206L1.09038 5.46302L1.10111 5.58254ZM3.1305 3.9573V3.83682L3.11977 3.83779L3.1305 3.9573ZM3.05755 3.96385L3.04678 3.84385L3.03609 3.84579L3.05755 3.96385ZM7.18847 4.77026V4.89075L7.1992 4.88978L7.18847 4.77026ZM7.26141 4.76372L7.27219 4.88372L7.28288 4.88178L7.26141 4.76372ZM7.26101 3.1385L7.27179 3.25851L7.28248 3.25656L7.26101 3.1385ZM7.18807 3.14505V3.26553L7.1988 3.26457L7.18807 3.14505ZM1.02817 2.33863L1.01739 2.21863L1.0067 2.22057L1.02817 2.33863ZM1.10111 2.33209V2.2116L1.09038 2.21257L1.10111 2.33209ZM9.62325 0.826848C10.1935 0.826848 10.6624 1.26253 10.7156 1.81978L10.9545 1.79698C10.8897 1.118 10.3186 0.586848 9.62325 0.586848V0.826848ZM3.13049 0.826848H9.62325V0.586848H3.13049V0.826848ZM3.06828 0.832914L3.14122 0.826368L3.11977 0.587328L3.04683 0.593875L3.06828 0.832914ZM2.8447 1.11316C2.8447 0.972614 2.94585 0.855659 3.07901 0.83146L3.0361 0.595328C2.79064 0.639935 2.6047 0.854769 2.6047 1.11316H2.8447ZM3.13049 1.39946C2.9728 1.39946 2.8447 1.27142 2.8447 1.11316H2.6047C2.6047 1.40369 2.83996 1.63946 3.13049 1.63946V1.39946ZM9.62325 1.39946H3.13049V1.63946H9.62325V1.39946ZM9.70692 1.40649L9.63398 1.39994L9.61253 1.63898L9.68547 1.64553L9.70692 1.40649ZM10.149 1.92577C10.149 1.66738 9.9631 1.45255 9.71765 1.40794L9.67474 1.64408C9.80789 1.66827 9.90905 1.78523 9.90905 1.92577H10.149ZM10.149 2.72026V1.92577H9.90905V2.72026H10.149ZM9.90916 2.71501C9.90882 2.72277 9.90865 2.73056 9.90865 2.73839H10.1487C10.1487 2.73408 10.1487 2.72978 10.1489 2.72551L9.90916 2.71501ZM9.90865 2.73839V5.17624H10.1487V2.73839H9.90865ZM9.90865 5.17624V8.02039H10.1487V5.17624H9.90865ZM6.78267 8.14039H10.0287V7.90039H6.78267V8.14039ZM6.72581 8.14597L6.7934 8.13991L6.77194 7.90087L6.70436 7.90693L6.72581 8.14597ZM6.82845 7.98711C6.64684 7.46381 6.14991 7.08778 5.56484 7.08778V7.32778C6.04441 7.32778 6.45253 7.63592 6.60172 8.0658L6.82845 7.98711ZM5.56484 7.08778C4.98 7.08778 4.48324 7.46351 4.30145 7.98648L4.52815 8.06529C4.67748 7.63568 5.08547 7.32778 5.56484 7.32778V7.08778ZM4.34789 8.14039C4.36406 8.14039 4.37983 8.14172 4.39513 8.14426L4.43447 7.90751C4.40623 7.90281 4.3773 7.90039 4.34789 7.90039V8.14039ZM3.1305 8.14039H4.34789V7.90039H3.1305V8.14039ZM3.06828 8.14645L3.14123 8.1399L3.11977 7.90087L3.04682 7.90741L3.06828 8.14645ZM2.8447 8.42687C2.8447 8.2862 2.9459 8.1692 3.07902 8.145L3.03609 7.90887C2.7906 7.9535 2.6047 8.16843 2.6047 8.42687H2.8447ZM3.1305 8.71335C2.97285 8.71335 2.8447 8.58528 2.8447 8.42687H2.6047C2.6047 8.71744 2.83992 8.95335 3.1305 8.95335V8.71335ZM4.34789 8.71335H3.1305V8.95335H4.34789V8.71335ZM4.40401 8.70783L4.33716 8.71383L4.35862 8.95287L4.42547 8.94686L4.40401 8.70783ZM4.30139 8.86673C4.48312 9.3898 4.97993 9.76562 5.56484 9.76562V9.52562C5.08541 9.52562 4.67738 9.21765 4.52809 8.78796L4.30139 8.86673ZM5.56484 9.76562C6.14974 9.76562 6.64655 9.38981 6.82829 8.86675L6.60159 8.78798C6.45229 9.21766 6.04427 9.52562 5.56484 9.52562V9.76562ZM6.78267 8.713C6.76629 8.713 6.75032 8.71163 6.73485 8.70903L6.69503 8.94571C6.72361 8.95051 6.75289 8.953 6.78267 8.953V8.713ZM10.4329 8.713H6.78267V8.953H10.4329V8.713ZM10.4325 8.953C10.4331 8.953 10.4338 8.953 10.4344 8.953V8.71301C10.4341 8.71301 10.4337 8.713 10.4334 8.713L10.4325 8.953ZM10.4344 8.953H11.7207V8.71301H10.4344V8.953ZM11.6075 8.87295C11.791 9.39277 12.2862 9.76562 12.8688 9.76562V9.52562C12.3913 9.52562 11.9846 9.22009 11.8338 8.79306L11.6075 8.87295ZM12.8688 9.76562C13.4514 9.76562 13.9466 9.39277 14.1301 8.87295L13.9038 8.79306C13.753 9.22009 13.3463 9.52562 12.8688 9.52562V9.76562ZM14.0169 8.953H14.4924V8.71301H14.0169V8.953ZM14.4981 8.95287L14.6154 8.94729L14.604 8.70756L14.4867 8.71314L14.4981 8.95287ZM14.6211 8.94688C15.2995 8.88197 15.8298 8.30999 15.8298 7.61408H15.5898C15.5898 8.18536 15.1545 8.65475 14.5982 8.70797L14.6211 8.94688ZM15.8298 7.61408V5.98885H15.5898V7.61408H15.8298ZM15.8297 5.98316L15.8241 5.86577L15.5844 5.87715L15.5899 5.99454L15.8297 5.98316ZM15.8237 5.86006C15.7589 5.18108 15.1878 4.64993 14.4924 4.64993V4.88993C15.0626 4.88993 15.5316 5.32561 15.5848 5.88286L15.8237 5.86006ZM14.4924 4.64993H14.0866V4.88993H14.4924V4.64993ZM14.2066 4.76993V3.55101H13.9666V4.76993H14.2066ZM14.2066 3.55101C14.2066 2.81168 13.608 2.21209 12.8692 2.21209V2.45209C13.4752 2.45209 13.9666 2.94395 13.9666 3.55101H14.2066ZM12.8692 2.21209H10.8406V2.45209H12.8692V2.21209ZM10.7206 1.92577V2.33209H10.9606V1.92577H10.7206ZM10.7152 1.81407L10.7208 1.93146L10.9605 1.92008L10.9549 1.80269L10.7152 1.81407ZM10.7206 3.14504V4.76993H10.9606V3.14504H10.7206ZM12.8694 3.02504H10.8406V3.26504H12.8694V3.02504ZM12.9531 3.03207L12.8802 3.02552L12.8587 3.26456L12.9316 3.27111L12.9531 3.03207ZM13.3952 3.55135C13.3952 3.29296 13.2093 3.07813 12.9638 3.03352L12.9209 3.26965C13.0541 3.29385 13.1552 3.41081 13.1552 3.55135H13.3952ZM13.3952 4.76993V3.55135H13.1552V4.76993H13.3952ZM10.8406 4.88993H13.2752V4.64993H10.8406V4.88993ZM10.7206 5.58254V8.02039H10.9606V5.58254H10.7206ZM13.6808 5.46255L10.8406 5.46254V5.70254L13.6808 5.70255V5.46255ZM13.6822 5.46254L13.6806 5.46255L13.6811 5.70255L13.6827 5.70254L13.6822 5.46254ZM14.4924 5.46254H13.6825V5.70254H14.4924V5.46254ZM14.5761 5.46957L14.5031 5.46302L14.4817 5.70206L14.5546 5.70861L14.5761 5.46957ZM15.0182 5.98885C15.0182 5.73047 14.8323 5.51563 14.5868 5.47102L14.5439 5.70716C14.6771 5.73136 14.7782 5.84831 14.7782 5.98885H15.0182ZM15.0182 7.61408V5.98885H14.7782V7.61408H15.0182ZM15.0112 7.69781L15.0177 7.62478L14.7787 7.60338L14.7722 7.67642L15.0112 7.69781ZM14.4924 8.14039C14.7508 8.14039 14.9653 7.95403 15.0098 7.70852L14.7736 7.66571C14.7494 7.79929 14.6325 7.90039 14.4924 7.90039V8.14039ZM14.0169 8.14039H14.4924V7.90039H14.0169V8.14039ZM12.8688 7.32778C13.3463 7.32778 13.753 7.6333 13.9038 8.06034L14.1301 7.98044C13.9466 7.46063 13.4514 7.08778 12.8688 7.08778V7.32778ZM11.8338 8.06034C11.9846 7.6333 12.3913 7.32778 12.8688 7.32778V7.08778C12.2862 7.08778 11.791 7.46063 11.6075 7.98044L11.8338 8.06034ZM10.8406 8.14039H11.7207V7.90039H10.8406V8.14039ZM7.71387 5.98902C7.71387 5.69844 7.47865 5.46254 7.18807 5.46254V5.70254C7.34572 5.70254 7.47387 5.83061 7.47387 5.98902H7.71387ZM7.28248 6.50702C7.52796 6.46239 7.71387 6.24745 7.71387 5.98902H7.47387C7.47387 6.12969 7.37267 6.24669 7.23955 6.27089L7.28248 6.50702ZM7.1988 6.51502L7.27174 6.50847L7.25028 6.26943L7.17734 6.27598L7.1988 6.51502ZM1.10111 6.5155H7.18807V6.2755H1.10111V6.5155ZM0.575313 5.98902C0.575313 6.2796 0.81053 6.5155 1.10111 6.5155V6.2755C0.943459 6.2755 0.815312 6.14743 0.815312 5.98902H0.575313ZM1.0067 5.47103C0.761217 5.51566 0.575313 5.73059 0.575313 5.98902H0.815312C0.815312 5.84836 0.916509 5.73136 1.04963 5.70715L1.0067 5.47103ZM1.09038 5.46302L1.01744 5.46957L1.0389 5.70861L1.11184 5.70206L1.09038 5.46302ZM7.18807 5.46254H1.10111V5.70254H7.18807V5.46254ZM7.18847 4.0773C7.34612 4.0773 7.47427 4.20538 7.47427 4.36378H7.71427C7.71427 4.07321 7.47905 3.8373 7.18847 3.8373V4.0773ZM3.1305 4.0773H7.18847V3.8373H3.1305V4.0773ZM3.06828 4.08337L3.14123 4.07682L3.11977 3.83779L3.04682 3.84433L3.06828 4.08337ZM2.8447 4.36378C2.8447 4.22312 2.9459 4.10612 3.07902 4.08192L3.03609 3.84579C2.7906 3.89042 2.6047 4.10535 2.6047 4.36378H2.8447ZM3.1305 4.65026C2.97284 4.65026 2.8447 4.52219 2.8447 4.36378H2.6047C2.6047 4.65436 2.83992 4.89026 3.1305 4.89026V4.65026ZM7.18847 4.65026H3.1305V4.89026H7.18847V4.65026ZM7.25068 4.6442L7.17774 4.65074L7.1992 4.88978L7.27214 4.88323L7.25068 4.6442ZM7.47427 4.36378C7.47427 4.50445 7.37307 4.62145 7.23995 4.64565L7.28288 4.88178C7.52836 4.83715 7.71427 4.62222 7.71427 4.36378H7.47427ZM7.71387 2.73857C7.71387 2.44799 7.47865 2.21209 7.18807 2.21209V2.45209C7.34572 2.45209 7.47387 2.58016 7.47387 2.73857H7.71387ZM7.28248 3.25656C7.52796 3.21193 7.71387 2.997 7.71387 2.73857H7.47387C7.47387 2.87923 7.37267 2.99623 7.23955 3.02043L7.28248 3.25656ZM7.1988 3.26457L7.27174 3.25802L7.25028 3.01898L7.17734 3.02553L7.1988 3.26457ZM1.10111 3.26505H7.18807V3.02505H1.10111V3.26505ZM0.575313 2.73857C0.575313 3.02914 0.81053 3.26505 1.10111 3.26505V3.02505C0.943459 3.02505 0.815312 2.89698 0.815312 2.73857H0.575313ZM1.0067 2.22057C0.761217 2.2652 0.575313 2.48013 0.575313 2.73857H0.815312C0.815312 2.5979 0.91651 2.4809 1.04963 2.4567L1.0067 2.22057ZM1.09038 2.21257L1.01744 2.21912L1.0389 2.45815L1.11184 2.4516L1.09038 2.21257ZM7.18807 2.21209H1.10111V2.45209H7.18807V2.21209ZM5.56504 8.14073C5.72269 8.14073 5.85083 8.2688 5.85083 8.42721H6.09083C6.09083 8.13663 5.85562 7.90073 5.56504 7.90073V8.14073ZM5.27924 8.42721C5.27924 8.2688 5.40739 8.14073 5.56504 8.14073V7.90073C5.27446 7.90073 5.03924 8.13663 5.03924 8.42721H5.27924ZM5.56504 8.71369C5.40739 8.71369 5.27924 8.58562 5.27924 8.42721H5.03924C5.03924 8.71779 5.27446 8.95369 5.56504 8.95369V8.71369ZM5.85083 8.42721C5.85083 8.58562 5.72269 8.71369 5.56504 8.71369V8.95369C5.85562 8.95369 6.09083 8.71779 6.09083 8.42721H5.85083ZM12.869 8.14073C13.0266 8.14073 13.1548 8.2688 13.1548 8.42721H13.3948C13.3948 8.13663 13.1596 7.90073 12.869 7.90073V8.14073ZM12.5832 8.42721C12.5832 8.2688 12.7113 8.14073 12.869 8.14073V7.90073C12.5784 7.90073 12.3432 8.13663 12.3432 8.42721H12.5832ZM12.869 8.71369C12.7113 8.71369 12.5832 8.58562 12.5832 8.42721H12.3432C12.3432 8.71779 12.5784 8.95369 12.869 8.95369V8.71369ZM13.1548 8.42721C13.1548 8.58562 13.0266 8.71369 12.869 8.71369V8.95369C13.1596 8.95369 13.3948 8.71779 13.3948 8.42721H13.1548Z" fill="#00A69C" mask="url(#path-1-outside-1)"/>
</svg>
