<svg width="14" height="14" viewBox="0 0 14 14" fill="none" xmlns="http://www.w3.org/2000/svg">
<path fill-rule="evenodd" clip-rule="evenodd" d="M13.4016 6.99074C13.4016 7.42356 13.3575 7.85577 13.271 8.27709C13.1866 8.68839 13.0616 9.0922 12.8978 9.47821C12.7378 9.8574 12.5394 10.2228 12.3075 10.5636C12.079 10.9022 11.8159 11.2199 11.5268 11.5095C11.2371 11.7978 10.9183 12.0602 10.5799 12.2896C10.238 12.5199 9.87206 12.7181 9.49265 12.8788C9.10607 13.0417 8.70133 13.1665 8.29039 13.2508C7.86851 13.3375 7.43472 13.3818 7.00127 13.3818C6.5675 13.3818 6.13373 13.3375 5.71246 13.2508C5.30089 13.1665 4.89618 13.0417 4.5099 12.8788C4.13052 12.7181 3.76423 12.5199 3.42235 12.2896C3.08389 12.0602 2.76513 11.7978 2.47605 11.5095C2.18667 11.2199 1.92351 10.9022 1.69476 10.5636C1.46412 10.2228 1.26534 9.85738 1.10472 9.47821C0.940943 9.0922 0.815642 8.68837 0.730947 8.27709C0.645325 7.85577 0.601562 7.42356 0.601562 6.99074C0.601562 6.55759 0.6453 6.12445 0.730972 5.70406C0.815667 5.29276 0.940968 4.88833 1.10475 4.50293C1.26537 4.12347 1.46414 3.75774 1.69478 3.41695C1.92354 3.07806 2.18669 2.76098 2.47607 2.47106C2.76515 2.1827 3.08392 1.9209 3.42237 1.69185C3.76426 1.46059 4.13054 1.26246 4.50993 1.10142C4.8962 0.938175 5.30089 0.813055 5.71249 0.729433C6.13376 0.643309 6.56753 0.599609 7.0013 0.599609C7.43474 0.599609 7.86852 0.643309 8.29041 0.729433C8.70136 0.81308 9.10607 0.9382 9.49267 1.10142C9.87206 1.26243 10.238 1.46059 10.5799 1.69185C10.9184 1.9209 11.2371 2.1827 11.5268 2.47106C11.8159 2.76098 12.0791 3.07806 12.3075 3.41695C12.5394 3.75774 12.7378 4.1235 12.8978 4.50293C13.0616 4.88833 13.1866 5.29276 13.271 5.70406C13.3575 6.12445 13.4016 6.55759 13.4016 6.99074ZM4.66925 2.05414C3.14509 2.77285 2.00754 4.17527 1.65283 5.86542C1.79691 5.86667 4.07453 5.89538 6.69872 5.19914C5.75275 3.52085 4.74207 2.15122 4.66925 2.05414ZM7.15155 6.03957C4.33736 6.88087 1.63689 6.82033 1.54002 6.81661C1.53844 6.87527 1.53564 6.93205 1.53564 6.99073C1.53564 8.39282 2.06535 9.67104 2.93602 10.6375C2.93414 10.6347 4.42987 7.98497 7.37938 7.03255C7.45063 7.00884 7.52315 6.9876 7.59502 6.96702C7.45784 6.65684 7.30812 6.34602 7.15155 6.03957ZM10.6108 2.89455C9.64857 2.04727 8.38508 1.53333 7.00126 1.53333C6.55717 1.53333 6.1262 1.58701 5.71337 1.68624C5.79524 1.7961 6.82187 3.15607 7.7566 4.86991C9.81891 4.09788 10.5974 2.91451 10.6108 2.89455ZM7.96758 7.87138C7.95541 7.87541 7.94323 7.87889 7.93133 7.88324C4.70653 9.00583 3.65343 11.2682 3.64204 11.2929C4.56992 12.0134 5.73372 12.4481 7.00129 12.4481C7.75819 12.4481 8.47916 12.2942 9.13512 12.0156C9.05418 11.5388 8.73667 9.86736 7.96758 7.87138ZM10.0555 11.5169C11.2827 10.69 12.1543 9.37681 12.3975 7.85575C12.285 7.81955 10.7558 7.33616 8.99164 7.61859C9.70856 9.58587 9.99984 11.188 10.0555 11.5169ZM8.17729 5.68317C8.30414 5.94344 8.42699 6.20834 8.54042 6.47456C8.58075 6.57007 8.62013 6.6637 8.65855 6.7573C10.5361 6.52137 12.3859 6.91831 12.465 6.93452C12.4525 5.64072 11.989 4.4533 11.2221 3.52368C11.2118 3.53831 10.3352 4.80312 8.17729 5.68317Z" fill="white"/>
</svg>
