<svg width="14" height="14" viewBox="0 0 14 14" fill="none" xmlns="http://www.w3.org/2000/svg">
<path fill-rule="evenodd" clip-rule="evenodd" d="M7.00216 0.599609C5.26401 0.599609 5.04588 0.607209 4.3632 0.638276C3.68186 0.669477 3.21679 0.777345 2.80985 0.935613C2.38891 1.09908 2.03184 1.31775 1.67611 1.67362C1.3201 2.02936 1.10143 2.38643 0.937433 2.80723C0.778764 3.2143 0.670763 3.67951 0.640096 4.36058C0.609563 5.04326 0.601562 5.26152 0.601562 6.99968C0.601562 8.73783 0.609296 8.9553 0.64023 9.63797C0.671563 10.3193 0.779431 10.7844 0.937566 11.1913C1.10117 11.6123 1.31984 11.9693 1.67571 12.3251C2.03131 12.6811 2.38838 12.9003 2.80905 13.0637C3.21626 13.222 3.68146 13.3299 4.36267 13.3611C5.04534 13.3921 5.26335 13.3997 7.00136 13.3997C8.73965 13.3997 8.95712 13.3921 9.63979 13.3611C10.3211 13.3299 10.7867 13.222 11.1939 13.0637C11.6147 12.9003 11.9713 12.6811 12.3269 12.3251C12.6829 11.9693 12.9016 11.6123 13.0656 11.1915C13.2229 10.7844 13.3309 10.3192 13.3629 9.6381C13.3936 8.95543 13.4016 8.73783 13.4016 6.99968C13.4016 5.26152 13.3936 5.04339 13.3629 4.36071C13.3309 3.67937 13.2229 3.2143 13.0656 2.80737C12.9016 2.38643 12.6829 2.02936 12.3269 1.67362C11.9709 1.31762 11.6149 1.09895 11.1935 0.935613C10.7855 0.777345 10.3202 0.669477 9.63886 0.638276C8.95618 0.607209 8.73885 0.599609 7.00016 0.599609H7.00216ZM6.428 1.75294C6.5984 1.75267 6.78853 1.75294 7.00214 1.75294C8.71095 1.75294 8.91349 1.75907 9.58829 1.78974C10.2123 1.81827 10.551 1.92254 10.7766 2.01014C11.0752 2.12614 11.2882 2.26481 11.512 2.48881C11.7361 2.71281 11.8747 2.92615 11.991 3.22482C12.0786 3.45015 12.183 3.78882 12.2114 4.41283C12.2421 5.0875 12.2487 5.29017 12.2487 6.99819C12.2487 8.70621 12.2421 8.90888 12.2114 9.58355C12.1829 10.2076 12.0786 10.5462 11.991 10.7716C11.875 11.0702 11.7361 11.2829 11.512 11.5068C11.288 11.7308 11.0754 11.8694 10.7766 11.9854C10.5512 12.0734 10.2123 12.1774 9.58829 12.206C8.91362 12.2366 8.71095 12.2433 7.00214 12.2433C5.29318 12.2433 5.09065 12.2366 4.41597 12.206C3.79197 12.1772 3.4533 12.0729 3.22756 11.9853C2.92889 11.8693 2.71556 11.7306 2.49155 11.5066C2.26755 11.2826 2.12888 11.0698 2.01262 10.771C1.92502 10.5457 1.82061 10.207 1.79221 9.58302C1.76155 8.90835 1.75541 8.70568 1.75541 6.99659C1.75541 5.28751 1.76155 5.08591 1.79221 4.41123C1.82075 3.78722 1.92502 3.44855 2.01262 3.22295C2.12862 2.92428 2.26755 2.71095 2.49155 2.48694C2.71556 2.26294 2.92889 2.12427 3.22756 2.00801C3.45316 1.92001 3.79197 1.816 4.41597 1.78734C5.00638 1.76067 5.23518 1.75267 6.428 1.75134V1.75294ZM10.4184 2.81562C9.99444 2.81562 9.65043 3.15922 9.65043 3.58336C9.65043 4.00736 9.99444 4.35137 10.4184 4.35137C10.8424 4.35137 11.1864 4.00736 11.1864 3.58336C11.1864 3.15935 10.8424 2.81562 10.4184 2.81562ZM7.00217 3.71296C5.18709 3.71296 3.71547 5.18457 3.71547 6.99966C3.71547 8.81474 5.18709 10.2857 7.00217 10.2857C8.81726 10.2857 10.2883 8.81474 10.2883 6.99966C10.2883 5.18457 8.81726 3.71296 7.00217 3.71296ZM7.00215 4.8663C8.18029 4.8663 9.1355 5.82138 9.1355 6.99966C9.1355 8.1778 8.18029 9.13301 7.00215 9.13301C5.82387 9.13301 4.86879 8.1778 4.86879 6.99966C4.86879 5.82138 5.82387 4.8663 7.00215 4.8663Z" fill="white"/>
</svg>
