<svg width="108" height="32" viewBox="0 0 108 32" fill="none" xmlns="http://www.w3.org/2000/svg">
<g clip-path="url(#clip0)">
<path d="M103.999 0H3.99998C1.79085 0 0 1.79085 0 3.99998V27.9999C0 30.209 1.79085 31.9998 3.99998 31.9998H103.999C106.209 31.9998 107.999 30.209 107.999 27.9999V3.99998C107.999 1.79085 106.209 0 103.999 0Z" fill="#001F1D"/>
<path d="M103.999 0.639837C104.89 0.640866 105.744 0.995218 106.374 1.62515C107.004 2.25508 107.358 3.10915 107.359 3.99998V27.9999C107.358 28.8907 107.004 29.7447 106.374 30.3747C105.744 31.0046 104.89 31.359 103.999 31.36H3.99998C3.10914 31.359 2.25509 31.0046 1.62519 30.3747C0.99529 29.7448 0.640981 28.8907 0.639997 27.9999V3.99998C0.640967 3.10914 0.99527 2.25506 1.62517 1.62513C2.25508 0.995193 3.10914 0.640849 3.99998 0.639837H103.999ZM103.999 0H3.99998C2.94007 0.00310246 1.92446 0.425524 1.17499 1.17499C0.425524 1.92446 0.00310246 2.94007 0 3.99998L0 27.9999C0.00310246 29.0598 0.425524 30.0754 1.17499 30.8248C1.92446 31.5743 2.94007 31.9967 3.99998 31.9998H103.999C105.059 31.9967 106.075 31.5743 106.824 30.8248C107.574 30.0754 107.996 29.0598 107.999 27.9999V3.99998C107.996 2.94007 107.574 1.92446 106.824 1.17499C106.075 0.425524 105.059 0.00310246 103.999 0Z" fill="#A6A6A6"/>
<path d="M37.9354 8.19427C37.9499 8.48782 37.9046 8.78126 37.8021 9.05673C37.6996 9.33219 37.5421 9.58392 37.3392 9.79658C37.1119 10.0324 36.8373 10.2175 36.5334 10.3399C36.2296 10.4623 35.9033 10.5191 35.576 10.5067C35.2465 10.5097 34.9198 10.4468 34.6151 10.3216C34.3103 10.1965 34.0337 10.0118 33.8013 9.77819C33.569 9.54462 33.3857 9.26697 33.2622 8.96155C33.1388 8.65613 33.0776 8.32911 33.0823 7.99971C33.0776 7.6703 33.1388 7.34327 33.2623 7.03785C33.3858 6.73243 33.5691 6.45476 33.8014 6.22117C34.0337 5.98758 34.3104 5.80277 34.6151 5.6776C34.9198 5.55243 35.2465 5.48942 35.576 5.49228C35.9147 5.49126 36.25 5.55974 36.5611 5.69348C36.8502 5.81063 37.1074 5.99439 37.3119 6.2298L36.89 6.65204C36.7292 6.4628 36.5271 6.31303 36.2993 6.21428C36.0715 6.11554 35.824 6.07045 35.576 6.08252C35.3263 6.08123 35.0789 6.13034 34.8487 6.2269C34.6185 6.32347 34.4101 6.46551 34.236 6.64452C34.062 6.82353 33.9259 7.03582 33.8358 7.26868C33.7458 7.50154 33.7036 7.75018 33.712 7.99971C33.706 8.37346 33.8112 8.74057 34.0141 9.05447C34.2171 9.36838 34.5087 9.61494 34.852 9.7629C35.1952 9.91086 35.5747 9.95355 35.9423 9.88556C36.3099 9.81756 36.649 9.64195 36.9166 9.38098C37.1629 9.11557 37.3057 8.77052 37.3189 8.40867H35.576V7.83211H37.9018C37.9238 7.95158 37.935 8.07279 37.9354 8.19427Z" fill="white" stroke="white" stroke-width="0.2" stroke-miterlimit="10"/>
<path d="M41.6226 6.18945H39.4367V7.71128H41.4078V8.28792H39.4367V9.80975H41.6226V10.3996H38.8203V5.59961H41.6226V6.18945Z" fill="white" stroke="white" stroke-width="0.2" stroke-miterlimit="10"/>
<path d="M44.2235 10.3996H43.6063V6.18945H42.2656V5.59961H45.5641V6.18945H44.2235V10.3996Z" fill="white" stroke="white" stroke-width="0.2" stroke-miterlimit="10"/>
<path d="M47.9492 10.4001V5.6001H48.5656V10.4001H47.9492Z" fill="white" stroke="white" stroke-width="0.2" stroke-miterlimit="10"/>
<path d="M51.3015 10.3996H50.6843V6.18945H49.3438V5.59961H52.6421V6.18945H51.3015V10.3996Z" fill="white" stroke="white" stroke-width="0.2" stroke-miterlimit="10"/>
<path d="M58.8873 9.77929C58.4201 10.2451 57.7873 10.5066 57.1276 10.5066C56.4678 10.5066 55.835 10.2451 55.3678 9.77929C55.1367 9.54519 54.955 9.267 54.8335 8.96127C54.7121 8.65554 54.6533 8.32851 54.6608 7.99962C54.6533 7.67073 54.7121 7.34369 54.8335 7.03796C54.955 6.73223 55.1367 6.45404 55.3678 6.21994C55.5987 5.98896 55.873 5.80578 56.1748 5.68091C56.4766 5.55603 56.8 5.4919 57.1267 5.49219C57.4533 5.49248 57.7766 5.55718 58.0782 5.6826C58.3798 5.80801 58.6537 5.99167 58.8842 6.22306C59.1155 6.45655 59.2975 6.73411 59.4195 7.03929C59.5415 7.34446 59.601 7.67103 59.5944 7.99962C59.6016 8.32848 59.5428 8.65545 59.4213 8.96116C59.2999 9.26686 59.1183 9.54506 58.8873 9.77929ZM55.8233 9.37737C56.1693 9.7228 56.6382 9.91681 57.1272 9.91681C57.6161 9.91681 58.0851 9.7228 58.4311 9.37737C58.6085 9.1957 58.7473 8.97995 58.839 8.74315C58.9307 8.50635 58.9735 8.25341 58.9647 7.99962C58.9735 7.74582 58.9307 7.49289 58.839 7.25608C58.7473 7.01928 58.6085 6.80353 58.4311 6.62186C58.0851 6.27643 57.6161 6.08242 57.1272 6.08242C56.6382 6.08242 56.1693 6.27643 55.8233 6.62186C55.6461 6.80367 55.5075 7.01947 55.416 7.25625C55.3244 7.49303 55.2817 7.7459 55.2905 7.99962C55.2817 8.25333 55.3244 8.5062 55.416 8.74298C55.5075 8.97977 55.6461 9.19556 55.8233 9.37737Z" fill="white" stroke="white" stroke-width="0.2" stroke-miterlimit="10"/>
<path d="M60.457 10.3996V5.59961H61.2078L63.5406 9.33359H63.5672L63.5406 8.40856V5.59961H64.1578V10.3996H63.5141L61.0734 6.48472H61.0469L61.0734 7.40976V10.3996H60.457Z" fill="white" stroke="white" stroke-width="0.2" stroke-miterlimit="10"/>
<path d="M54.5074 17.4012C53.835 17.4038 53.1784 17.6055 52.6206 17.9809C52.0627 18.3564 51.6286 18.8887 51.3731 19.5106C51.1175 20.1326 51.052 20.8163 51.1847 21.4755C51.3175 22.1346 51.6426 22.7397 52.1189 23.2143C52.5953 23.6888 53.2016 24.0116 53.8613 24.1418C54.521 24.2721 55.2044 24.2039 55.8254 23.946C56.4464 23.6881 56.977 23.252 57.3503 22.6927C57.7236 22.1335 57.9228 21.4761 57.9228 20.8037C57.9294 20.354 57.8455 19.9075 57.6761 19.4909C57.5066 19.0742 57.255 18.6959 56.9364 18.3785C56.6177 18.061 56.2385 17.8109 55.8212 17.643C55.4039 17.4752 54.9571 17.3929 54.5074 17.4012ZM54.5074 22.8659C54.0933 22.8954 53.6799 22.7996 53.3211 22.5908C52.9622 22.3821 52.6745 22.0702 52.4953 21.6957C52.3162 21.3212 52.254 20.9014 52.3168 20.491C52.3796 20.0807 52.5645 19.6987 52.8474 19.3949C53.1304 19.0911 53.4982 18.8795 53.9031 18.7876C54.3079 18.6958 54.7311 18.728 55.1174 18.88C55.5037 19.032 55.8353 19.2968 56.069 19.6399C56.3027 19.983 56.4277 20.3886 56.4277 20.8037C56.4403 21.066 56.4003 21.3281 56.31 21.5747C56.2197 21.8212 56.081 22.0473 55.9021 22.2394C55.7231 22.4316 55.5076 22.586 55.2681 22.6936C55.0285 22.8012 54.7699 22.8597 54.5074 22.8659ZM47.0567 17.4012C46.3843 17.4038 45.7277 17.6055 45.1699 17.9809C44.612 18.3563 44.1779 18.8886 43.9224 19.5106C43.6668 20.1325 43.6012 20.8162 43.734 21.4754C43.8667 22.1346 44.1918 22.7397 44.6681 23.2142C45.1445 23.6888 45.7508 24.0116 46.4105 24.1418C47.0702 24.2721 47.7536 24.2039 48.3746 23.946C48.9956 23.6881 49.5263 23.252 49.8996 22.6927C50.2729 22.1335 50.4721 21.4761 50.4721 20.8037C50.4787 20.354 50.3948 19.9075 50.2253 19.4909C50.0558 19.0742 49.8043 18.6959 49.4857 18.3785C49.167 18.0611 48.7878 17.8109 48.3705 17.6431C47.9532 17.4752 47.5064 17.3929 47.0567 17.4012ZM47.0567 22.8659C46.6426 22.8954 46.2292 22.7996 45.8704 22.5908C45.5115 22.3821 45.2238 22.0702 45.0447 21.6957C44.8656 21.3212 44.8033 20.9014 44.8661 20.491C44.9289 20.0807 45.1138 19.6987 45.3968 19.3949C45.6797 19.0911 46.0475 18.8795 46.4524 18.7876C46.8572 18.6958 47.2804 18.728 47.6667 18.88C48.053 19.032 48.3846 19.2968 48.6183 19.6399C48.852 19.983 48.977 20.3886 48.977 20.8037C48.9896 21.066 48.9496 21.3281 48.8593 21.5747C48.7691 21.8213 48.6304 22.0473 48.4514 22.2394C48.2725 22.4316 48.0569 22.586 47.8174 22.6936C47.5779 22.8012 47.3192 22.8597 47.0567 22.8659ZM38.1937 18.4452V19.8887H41.6479C41.598 20.5657 41.321 21.2061 40.8616 21.7059C40.5155 22.0588 40.0992 22.3351 39.6397 22.5171C39.1802 22.6992 38.6876 22.7828 38.1937 22.7627C37.1841 22.7491 36.2205 22.3384 35.5114 21.6196C34.8023 20.9008 34.4047 19.9317 34.4047 18.922C34.4047 17.9123 34.8023 16.9432 35.5114 16.2245C36.2205 15.5057 37.1841 15.095 38.1937 15.0813C39.1635 15.0687 40.0991 15.4392 40.7972 16.1124L41.8154 15.0942C41.339 14.6226 40.7733 14.2509 40.1514 14.0008C39.5295 13.7507 38.864 13.6273 38.1937 13.6378C37.4933 13.6276 36.7979 13.7568 36.1478 14.0178C35.4978 14.2787 34.9061 14.6663 34.4072 15.158C33.9083 15.6497 33.5121 16.2357 33.2417 16.8819C32.9713 17.5281 32.832 18.2216 32.832 18.922C32.832 19.6225 32.9713 20.316 33.2417 20.9622C33.5121 21.6084 33.9083 22.1943 34.4072 22.686C34.9061 23.1777 35.4978 23.5653 36.1478 23.8263C36.7979 24.0873 37.4933 24.2165 38.1937 24.2063C38.8781 24.2346 39.5607 24.1172 40.1962 23.8616C40.8317 23.6061 41.4056 23.2183 41.8798 22.7241C42.7217 21.8051 43.1705 20.5931 43.13 19.3474C43.1333 19.0449 43.1074 18.7428 43.0526 18.4452H38.1937ZM74.4402 19.5664C74.2357 18.9501 73.8465 18.4117 73.3253 18.0244C72.8042 17.637 72.1765 17.4194 71.5274 17.4012C71.0902 17.404 70.6582 17.4953 70.2573 17.6697C69.8564 17.8442 69.4951 18.0981 69.1951 18.4161C68.8952 18.7341 68.6628 19.1097 68.5121 19.5201C68.3614 19.9305 68.2955 20.3671 68.3183 20.8037C68.3085 21.2511 68.3889 21.6958 68.5547 22.1114C68.7206 22.5269 68.9686 22.9048 69.2838 23.2224C69.5989 23.54 69.9749 23.7908 70.3892 23.9598C70.8035 24.1289 71.2476 24.2127 71.695 24.2063C72.2555 24.2094 72.808 24.0732 73.3029 23.81C73.7978 23.5468 74.2196 23.1648 74.5303 22.6983L73.3704 21.9251C73.1967 22.2136 72.9509 22.4521 72.6571 22.617C72.3634 22.782 72.0319 22.8677 71.695 22.8659C71.3484 22.8791 71.0057 22.7879 70.7116 22.6041C70.4174 22.4202 70.1853 22.1522 70.0453 21.8348L74.5949 19.9532L74.4402 19.5664ZM69.8005 20.7007C69.7844 20.453 69.818 20.2047 69.8991 19.9701C69.9802 19.7356 70.1073 19.5196 70.2729 19.3348C70.4385 19.15 70.6393 19 70.8636 18.8938C71.0878 18.7875 71.331 18.727 71.5789 18.7159C71.8371 18.6989 72.0945 18.7583 72.3191 18.8866C72.5437 19.015 72.7256 19.2066 72.842 19.4376L69.8005 20.7007ZM66.1014 24H67.5965V13.9988H66.1014V24ZM63.6526 18.1616H63.6011C63.3738 17.9147 63.0964 17.7191 62.7875 17.588C62.4785 17.4569 62.1452 17.3932 61.8096 17.4012C60.9323 17.4386 60.1032 17.8134 59.4956 18.4474C58.8881 19.0814 58.5488 19.9256 58.5488 20.8038C58.5488 21.6819 58.8881 22.5261 59.4956 23.1601C60.1032 23.7941 60.9323 24.1689 61.8096 24.2063C62.1465 24.2152 62.4812 24.1507 62.7906 24.0171C63.1 23.8836 63.3766 23.6843 63.6011 23.433H63.6526V23.9227C63.6526 25.2245 62.9567 25.9204 61.8354 25.9204C61.4617 25.9115 61.0991 25.7915 60.7938 25.5757C60.4886 25.3599 60.2544 25.0582 60.1213 24.7089L58.8196 25.2502C59.0649 25.8476 59.483 26.3581 60.0203 26.7163C60.5576 27.0745 61.1896 27.2641 61.8354 27.2608C63.5882 27.2608 65.0704 26.2298 65.0704 23.7165V17.6074H63.6526V18.1616ZM61.9386 22.8659C61.4218 22.822 60.9404 22.5858 60.5895 22.2039C60.2386 21.822 60.0439 21.3224 60.0439 20.8038C60.0439 20.2852 60.2386 19.7855 60.5895 19.4036C60.9404 19.0217 61.4218 18.7855 61.9386 18.7416C62.1957 18.7542 62.4476 18.8184 62.6793 18.9304C62.9111 19.0424 63.1179 19.1999 63.2875 19.3935C63.4571 19.5871 63.5859 19.8129 63.6664 20.0574C63.7468 20.3019 63.7772 20.5601 63.7558 20.8166C63.7759 21.0715 63.7444 21.3278 63.6631 21.5703C63.5819 21.8127 63.4525 22.0363 63.2829 22.2276C63.1132 22.4189 62.9067 22.574 62.6758 22.6837C62.4448 22.7934 62.1941 22.8553 61.9386 22.8659ZM81.4433 13.9989H77.8663V24H79.3589V20.2109H81.4433C81.8655 20.2341 82.288 20.1709 82.6849 20.0253C83.0819 19.8796 83.445 19.6546 83.7521 19.3639C84.0591 19.0732 84.3037 18.723 84.4709 18.3346C84.638 17.9462 84.7242 17.5278 84.7242 17.1049C84.7242 16.6821 84.638 16.2637 84.4709 15.8753C84.3037 15.4869 84.0591 15.1367 83.7521 14.846C83.445 14.5553 83.0819 14.3302 82.6849 14.1846C82.288 14.039 81.8655 13.9758 81.4433 13.9989ZM81.4818 18.8191H79.3589V15.3909H81.4818C81.7099 15.3861 81.9367 15.427 82.1488 15.511C82.3609 15.595 82.5541 15.7205 82.7171 15.8802C82.88 16.0398 83.0095 16.2304 83.0979 16.4407C83.1863 16.651 83.2318 16.8768 83.2318 17.105C83.2318 17.3331 83.1863 17.559 83.0979 17.7693C83.0095 17.9796 82.88 18.1701 82.7171 18.3298C82.5541 18.4894 82.3609 18.6149 82.1488 18.6989C81.9367 18.783 81.7099 18.8238 81.4818 18.8191ZM90.7071 17.3828C90.1623 17.351 89.6201 17.479 89.147 17.751C88.6738 18.023 88.2904 18.4272 88.0437 18.914L89.369 19.4672C89.5004 19.2256 89.6994 19.0276 89.9416 18.8973C90.1838 18.767 90.4588 18.7102 90.7328 18.7338C91.1115 18.6968 91.4894 18.8115 91.7836 19.0527C92.0779 19.2939 92.2645 19.6419 92.3026 20.0204V20.1234C91.8232 19.8687 91.2885 19.7362 90.7457 19.7374C89.3176 19.7374 87.8636 20.5223 87.8636 21.9891C87.8775 22.2982 87.9534 22.6014 88.0866 22.8806C88.2199 23.1599 88.4079 23.4095 88.6395 23.6147C88.8711 23.8199 89.1416 23.9765 89.4349 24.0752C89.7282 24.1739 90.0383 24.2127 90.3468 24.1892C90.7227 24.2113 91.0976 24.1323 91.4325 23.9603C91.7674 23.7883 92.0501 23.5297 92.2511 23.2114H92.3026V23.9834H93.7436V20.1492C93.7436 18.3736 92.4183 17.3828 90.7071 17.3828ZM90.527 22.8639C90.038 22.8639 89.3561 22.6195 89.3561 22.0147C89.3561 21.2428 90.2053 20.9468 90.9388 20.9468C91.4151 20.9341 91.8862 21.0497 92.3026 21.2814C92.2478 21.7152 92.0377 22.1144 91.7113 22.4054C91.3849 22.6963 90.9642 22.8592 90.527 22.8639ZM98.9932 17.6016L97.2819 21.9375H97.2304L95.4549 17.6016H93.8466L96.5099 23.6617L94.9917 27.0327H96.5485L100.653 17.6016H98.9932ZM85.5477 24H87.0401V13.9989H85.5477V24Z" fill="white"/>
<path d="M8.34971 6.03025C8.08738 6.3439 7.95492 6.746 7.97947 7.15416V24.847C7.95485 25.2551 8.08732 25.6572 8.34971 25.9709L8.40891 26.0285L18.3201 16.1175V15.8836L8.40891 5.97217L8.34971 6.03025Z" fill="url(#paint0_linear)"/>
<path d="M21.6238 19.4233L18.3203 16.1182V15.8844L21.6246 12.5801L21.6991 12.6226L25.6133 14.8466C26.7314 15.4818 26.7314 16.5212 25.6133 17.1568L21.6991 19.3808L21.6238 19.4233Z" fill="url(#paint1_linear)"/>
<path d="M21.6968 19.3801L18.318 16.001L8.34766 25.9712C8.57547 26.1722 8.86639 26.2871 9.17002 26.296C9.47365 26.305 9.77085 26.2075 10.0101 26.0204L21.6968 19.3801Z" fill="url(#paint2_linear)"/>
<path d="M21.6968 12.6216L10.0101 5.98132C9.77085 5.7942 9.47365 5.69668 9.17002 5.70565C8.86639 5.71462 8.57547 5.82952 8.34766 6.03044L18.318 16.0008L21.6968 12.6216Z" fill="url(#paint3_linear)"/>
<path opacity="0.2" d="M21.6223 19.3057L10.0101 25.9035C9.78006 26.0786 9.49927 26.1742 9.21012 26.1757C8.92098 26.1773 8.63918 26.0847 8.40726 25.912L8.34766 25.9716L8.40686 26.0293L8.40726 26.0289C8.63914 26.2017 8.92096 26.2943 9.21012 26.2927C9.49929 26.2912 9.7801 26.1956 10.0101 26.0203L21.6968 19.3801L21.6223 19.3057Z" fill="#001F1D"/>
<path opacity="0.12" d="M8.34969 25.8549C8.08739 25.5412 7.95493 25.1391 7.97945 24.731V24.8478C7.95492 25.256 8.08737 25.6581 8.34969 25.9718L8.40929 25.9122L8.34969 25.8549Z" fill="#001F1D"/>
<path opacity="0.12" d="M25.6137 17.0388L21.625 19.3054L21.6995 19.3798L25.6137 17.1557C25.8439 17.0558 26.0432 16.8959 26.1907 16.6929C26.3382 16.4898 26.4285 16.2508 26.4523 16.001C26.4028 16.2273 26.3013 16.4389 26.1557 16.619C26.0101 16.7992 25.8245 16.9429 25.6137 17.0388Z" fill="#001F1D"/>
<path opacity="0.25" d="M10.0093 6.09858L25.6102 14.9625C25.8211 15.0584 26.0067 15.2022 26.1523 15.3824C26.2979 15.5627 26.3994 15.7744 26.4488 16.0008C26.4252 15.7508 26.3349 15.5118 26.1874 15.3086C26.0399 15.1054 25.8405 14.9455 25.6102 14.8456L10.0093 5.9817C8.8912 5.34642 7.97656 5.8741 7.97656 7.15473V7.27161C7.97656 5.99106 8.8912 5.46338 10.0093 6.09858Z" fill="white"/>
</g>
<defs>
<linearGradient id="paint0_linear" x1="17.4411" y1="6.96761" x2="4.01527" y2="20.3935" gradientUnits="userSpaceOnUse">
<stop stop-color="#00A0FF"/>
<stop offset="0.00657" stop-color="#00A1FF"/>
<stop offset="0.2601" stop-color="#00BEFF"/>
<stop offset="0.5122" stop-color="#00D2FF"/>
<stop offset="0.7604" stop-color="#00DFFF"/>
<stop offset="1" stop-color="#00E3FF"/>
</linearGradient>
<linearGradient id="paint1_linear" x1="27.0691" y1="16.0017" x2="7.71163" y2="16.0017" gradientUnits="userSpaceOnUse">
<stop stop-color="#FFE000"/>
<stop offset="0.4087" stop-color="#FFBD00"/>
<stop offset="0.7754" stop-color="#FFA500"/>
<stop offset="1" stop-color="#FF9C00"/>
</linearGradient>
<linearGradient id="paint2_linear" x1="19.8608" y1="17.837" x2="1.65431" y2="36.0436" gradientUnits="userSpaceOnUse">
<stop stop-color="#FF3A44"/>
<stop offset="1" stop-color="#C31162"/>
</linearGradient>
<linearGradient id="paint3_linear" x1="5.83721" y1="0.141016" x2="13.9672" y2="8.27099" gradientUnits="userSpaceOnUse">
<stop stop-color="#32A071"/>
<stop offset="0.0685" stop-color="#2DA771"/>
<stop offset="0.4762" stop-color="#15CF74"/>
<stop offset="0.8009" stop-color="#06E775"/>
<stop offset="1" stop-color="#00F076"/>
</linearGradient>
<clipPath id="clip0">
<rect width="107.999" height="32" fill="white"/>
</clipPath>
</defs>
</svg>
