<svg width="135" height="40" viewBox="0 0 135 40" fill="none" xmlns="http://www.w3.org/2000/svg">
<rect width="135" height="40" rx="5" fill="white"/>
<path fill-rule="evenodd" clip-rule="evenodd" d="M5 0H130C132.761 0 135 2.23858 135 5V35C135 37.7614 132.761 40 130 40H5C2.23858 40 0 37.7614 0 35V5C0 2.23858 2.23858 0 5 0ZM134.2 4.99979C134.2 2.68019 132.319 0.799788 130 0.799788H4.99979C2.68019 0.799788 0.799788 2.68019 0.799788 4.99979V34.9998C0.799788 37.3194 2.68019 39.1998 4.99979 39.1998H130C132.319 39.1998 134.2 37.3194 134.2 34.9998V4.99979Z" fill="#B4E4E1"/>
<path fill-rule="evenodd" clip-rule="evenodd" d="M47.7401 23.0601V24.8601H52.0601C51.9924 25.7079 51.6399 26.5079 51.0601 27.1301C50.1861 28.0204 48.9766 28.4998 47.7301 28.4501C45.0791 28.4501 42.9301 26.3011 42.9301 23.6501C42.9301 20.9992 45.0791 18.8501 47.7301 18.8501C48.9479 18.8303 50.1239 19.2942 51.0001 20.1401L52.2701 18.8701C51.075 17.66 49.4408 16.9854 47.7401 17.0001C45.3191 16.9059 43.0405 18.1438 41.802 20.2262C40.5634 22.3086 40.5634 24.9017 41.802 26.9841C43.0405 29.0665 45.3191 30.3044 47.7401 30.2101C49.4719 30.2884 51.1528 29.6138 52.3501 28.3601C53.3978 27.2091 53.9571 25.6959 53.9101 24.1401C53.9133 23.7611 53.8798 23.3827 53.8101 23.0101L47.7401 23.0601ZM58.8295 21.7503C56.4836 21.7558 54.5858 23.6611 54.5895 26.007C54.5932 28.3529 56.4969 30.2521 58.8428 30.2503C61.1887 30.2485 63.0895 28.3462 63.0895 26.0003C63.106 24.8647 62.6607 23.771 61.8558 22.9698C61.0508 22.1686 59.955 21.7285 58.8195 21.7503H58.8295ZM63.9102 26.0136C63.9029 23.669 65.7956 21.7613 68.1402 21.7503C69.2758 21.7285 70.3715 22.1686 71.1765 22.9698C71.9815 23.771 72.4267 24.8647 72.4102 26.0003C72.4102 28.3449 70.5115 30.2466 68.1669 30.2503C65.8223 30.2539 63.9176 28.3582 63.9102 26.0136ZM65.6321 27.1185C66.0888 28.0744 67.0833 28.654 68.1401 28.5801C68.8034 28.5647 69.4323 28.282 69.8842 27.7962C70.3361 27.3104 70.5726 26.6627 70.5401 26.0001C70.5375 24.9407 69.8876 23.9906 68.9013 23.6041C67.9149 23.2177 66.7926 23.4734 66.071 24.2491C65.3495 25.0247 65.1754 26.1626 65.6321 27.1185ZM56.3147 27.1264C56.7746 28.0817 57.772 28.6584 58.8294 28.5803H58.8194C59.4827 28.5649 60.1116 28.2823 60.5635 27.7965C61.0154 27.3107 61.2519 26.663 61.2194 26.0003C61.2165 24.9401 60.5653 23.9896 59.5777 23.604C58.5901 23.2184 57.4672 23.4763 56.7467 24.254C56.0262 25.0318 55.8548 26.1712 56.3147 27.1264ZM89.409 21.7499C91.067 21.8109 92.5151 22.8891 93.049 24.4599L93.259 24.9099L87.569 27.2599C87.9257 28.0721 88.7426 28.5837 89.629 28.5499C90.4849 28.552 91.2788 28.1038 91.719 27.3699L93.169 28.3699C92.3797 29.5513 91.0499 30.2575 89.629 30.2499C88.4996 30.2664 87.412 29.823 86.6161 29.0214C85.8202 28.2199 85.3845 27.1292 85.409 25.9999C85.3399 24.8964 85.7307 23.8135 86.4884 23.0084C87.2462 22.2033 88.3034 21.7477 89.409 21.7499ZM87.2494 25.88C87.2085 25.2552 87.4208 24.6402 87.8384 24.1736C88.256 23.7071 88.8439 23.4283 89.4694 23.4C90.1288 23.3566 90.7505 23.7107 91.0494 24.3L87.2494 25.88ZM84.4998 30H82.6298V17.5H84.4998V30ZM79.5694 22.7002H79.4994C78.9294 22.0629 78.1145 21.6991 77.2594 21.7002C74.9896 21.8103 73.2058 23.6827 73.2058 25.9552C73.2058 28.2277 74.9896 30.1001 77.2594 30.2102C78.1173 30.2246 78.9375 29.8585 79.4994 29.2102H79.5594V29.8202C79.5594 31.4502 78.6894 32.3202 77.2894 32.3202C76.3357 32.2979 75.4902 31.7012 75.1494 30.8102L73.5194 31.4902C74.1471 33.017 75.6387 34.0101 77.2894 34.0002C79.4794 34.0002 81.2894 32.7102 81.2894 29.5702V22.0002H79.5694V22.7002ZM77.4271 28.5797L77.4302 28.58H77.4202L77.4271 28.5797ZM79.1121 27.7777C78.683 28.2634 78.0744 28.5529 77.4271 28.5797C76.0915 28.4604 75.0675 27.3412 75.0675 26C75.0675 24.6577 76.093 23.5378 77.4302 23.42C78.0763 23.4531 78.6816 23.7457 79.109 24.2315C79.5364 24.7172 79.7495 25.3549 79.7002 26C79.7553 26.648 79.5428 27.2904 79.1121 27.7777ZM101.81 17.5001H97.3398V30.0001H99.2098V25.2601H101.82C103.272 25.3645 104.662 24.6486 105.42 23.4051C106.178 22.1615 106.178 20.5987 105.42 19.3551C104.662 18.1116 103.272 17.3957 101.82 17.5001H101.81ZM99.2002 23.5003H101.81L101.85 23.5303C103.035 23.5303 103.995 22.5699 103.995 21.3853C103.995 20.2006 103.035 19.2403 101.85 19.2403H99.2002V23.5003ZM113.34 21.7002C111.949 21.617 110.641 22.3673 110.01 23.6102L111.67 24.3002C112.004 23.6839 112.671 23.323 113.37 23.3802C113.849 23.3242 114.331 23.4632 114.707 23.7659C115.084 24.0686 115.322 24.5098 115.37 24.9902V25.1202C114.769 24.8022 114.1 24.6373 113.42 24.6402C111.63 24.6402 109.82 25.6402 109.82 27.4502C109.856 28.2299 110.205 28.962 110.789 29.48C111.373 29.998 112.142 30.2577 112.92 30.2002C113.879 30.2691 114.799 29.8089 115.32 29.0002H115.38V30.0002H117.18V25.1902C117.18 23.0002 115.52 21.7302 113.39 21.7302L113.34 21.7002ZM111.65 27.4903C111.65 28.2403 112.5 28.5503 113.11 28.5503L113.16 28.5803C114.286 28.5528 115.221 27.6997 115.35 26.5803C114.831 26.2907 114.244 26.1456 113.65 26.1603C112.71 26.1603 111.65 26.4903 111.65 27.4903ZM123.74 22.0001L121.6 27.4201H121.54L119.32 22.0001H117.32L120.65 29.5801L118.75 33.7901H120.7L125.82 22.0001H123.74ZM108.799 30H106.929V17.5H108.799V30Z" fill="#00A69C"/>
<path fill-rule="evenodd" clip-rule="evenodd" d="M69.2095 12.2195C70.4265 13.4297 72.3925 13.4297 73.6095 12.2195C74.7942 10.9727 74.7942 9.01624 73.6095 7.76948C73.0275 7.18323 72.2356 6.85352 71.4095 6.85352C70.5834 6.85352 69.7915 7.18323 69.2095 7.76948C68.0297 9.01825 68.0297 10.9707 69.2095 12.2195ZM46.6692 12.2396C47.1825 11.7037 47.4535 10.9808 47.4192 10.2396C47.4192 10.0887 47.4059 9.93807 47.3792 9.78956H44.4692V10.5096H46.6392C46.6244 10.9631 46.4469 11.3961 46.1392 11.7296C45.4538 12.3921 44.4371 12.5772 43.5621 12.1988C42.6872 11.8204 42.1258 10.9527 42.1392 9.99956C42.1174 9.36878 42.3536 8.75635 42.7932 8.3035C43.2329 7.85065 43.838 7.59646 44.4692 7.59956C45.0971 7.56525 45.7045 7.82823 46.1092 8.30956L46.6392 7.77956C46.3832 7.48511 46.061 7.25551 45.6992 7.10956C45.3105 6.94323 44.8919 6.85815 44.4692 6.85956C43.6398 6.84107 42.8397 7.16688 42.2592 7.75956C41.3657 8.65888 41.0984 10.0062 41.5809 11.1785C42.0633 12.3508 43.2015 13.1196 44.4692 13.1296C45.2957 13.159 46.0956 12.8354 46.6692 12.2396ZM49.2995 7.7395H51.9995V6.9995H48.4995V12.9995H51.9995V12.2595H49.2995V10.3595H51.7595V9.6395H49.2995V7.7395ZM55.2794 12.9995H54.5094V7.7395H52.8294V6.9995H56.9994V7.7395H55.2794V12.9995ZM59.9388 6.9995V12.9995H60.7088V6.9995H59.9388ZM64.1288 12.9995H63.3588V7.7395H61.6788V6.9995H65.7988V7.7395H64.1288V12.9995ZM69.7791 11.7195C70.6804 12.617 72.1378 12.617 73.0391 11.7195C73.9243 10.7436 73.9243 9.2553 73.0391 8.27947C72.1378 7.38191 70.6804 7.38191 69.7791 8.27947C68.8939 9.2553 68.8939 10.7436 69.7791 11.7195ZM75.5797 6.9995V12.9995H76.3597V8.1095L79.4097 12.9995H80.2097V6.9995H79.4397V11.6695L76.5197 6.9995H75.5797Z" fill="#00A69C"/>
<path d="M73.6095 12.2195L73.68 12.2904L73.682 12.2884L73.6095 12.2195ZM69.2095 12.2195L69.1368 12.2882L69.139 12.2904L69.2095 12.2195ZM73.6095 7.76948L73.682 7.70058L73.6804 7.69903L73.6095 7.76948ZM69.2095 7.76948L69.1385 7.69901L69.1368 7.70081L69.2095 7.76948ZM47.4192 10.2396L47.3191 10.2395L47.3193 10.2442L47.4192 10.2396ZM46.6692 12.2396L46.7412 12.3089L46.7414 12.3087L46.6692 12.2396ZM47.3792 9.78956L47.4776 9.77188L47.4628 9.68956H47.3792V9.78956ZM44.4692 9.78956V9.68956H44.3692V9.78956H44.4692ZM44.4692 10.5096H44.3692V10.6096H44.4692V10.5096ZM46.6392 10.5096L46.7391 10.5128L46.7425 10.4096H46.6392V10.5096ZM46.1392 11.7296L46.2088 11.8016L46.2127 11.7974L46.1392 11.7296ZM42.1392 9.99956L42.2393 10.001L42.2391 9.99611L42.1392 9.99956ZM44.4692 7.59956L44.4687 7.69973L44.4746 7.69941L44.4692 7.59956ZM46.1092 8.30956L46.0326 8.37391L46.1028 8.45736L46.1799 8.38027L46.1092 8.30956ZM46.6392 7.77956L46.7099 7.85027L46.7758 7.78432L46.7147 7.71394L46.6392 7.77956ZM45.6992 7.10956L45.6598 7.20151L45.6618 7.2023L45.6992 7.10956ZM44.4692 6.85956L44.467 6.95957L44.4695 6.95956L44.4692 6.85956ZM42.2592 7.75956L42.3301 7.83004L42.3306 7.82953L42.2592 7.75956ZM41.5809 11.1785L41.4884 11.2165L41.5809 11.1785ZM44.4692 13.1296L44.4727 13.0296L44.47 13.0296L44.4692 13.1296ZM51.9995 7.7395V7.8395H52.0995V7.7395H51.9995ZM49.2995 7.7395V7.6395H49.1995V7.7395H49.2995ZM51.9995 6.9995H52.0995V6.8995H51.9995V6.9995ZM48.4995 6.9995V6.8995H48.3995V6.9995H48.4995ZM48.4995 12.9995H48.3995V13.0995H48.4995V12.9995ZM51.9995 12.9995V13.0995H52.0995V12.9995H51.9995ZM51.9995 12.2595H52.0995V12.1595H51.9995V12.2595ZM49.2995 12.2595H49.1995V12.3595H49.2995V12.2595ZM49.2995 10.3595V10.2595H49.1995V10.3595H49.2995ZM51.7595 10.3595V10.4595H51.8595V10.3595H51.7595ZM51.7595 9.6395H51.8595V9.5395H51.7595V9.6395ZM49.2995 9.6395H49.1995V9.7395H49.2995V9.6395ZM54.5094 12.9995H54.4094V13.0995H54.5094V12.9995ZM55.2794 12.9995V13.0995H55.3794V12.9995H55.2794ZM54.5094 7.7395H54.6094V7.6395H54.5094V7.7395ZM52.8294 7.7395H52.7294V7.8395H52.8294V7.7395ZM52.8294 6.9995V6.8995H52.7294V6.9995H52.8294ZM56.9994 6.9995H57.0994V6.8995H56.9994V6.9995ZM56.9994 7.7395V7.8395H57.0994V7.7395H56.9994ZM55.2794 7.7395V7.6395H55.1794V7.7395H55.2794ZM59.9388 12.9995H59.8388V13.0995H59.9388V12.9995ZM59.9388 6.9995V6.8995H59.8388V6.9995H59.9388ZM60.7088 12.9995V13.0995H60.8088V12.9995H60.7088ZM60.7088 6.9995H60.8088V6.8995H60.7088V6.9995ZM63.3588 12.9995H63.2588V13.0995H63.3588V12.9995ZM64.1288 12.9995V13.0995H64.2288V12.9995H64.1288ZM63.3588 7.7395H63.4588V7.6395H63.3588V7.7395ZM61.6788 7.7395H61.5788V7.8395H61.6788V7.7395ZM61.6788 6.9995V6.8995H61.5788V6.9995H61.6788ZM65.7988 6.9995H65.8988V6.8995H65.7988V6.9995ZM65.7988 7.7395V7.8395H65.8988V7.7395H65.7988ZM64.1288 7.7395V7.6395H64.0288V7.7395H64.1288ZM73.0391 11.7195L73.1098 11.7904L73.1132 11.7867L73.0391 11.7195ZM69.7791 11.7195L69.7049 11.7867L69.7085 11.7903L69.7791 11.7195ZM73.0391 8.27947L73.1133 8.2122L73.1097 8.20861L73.0391 8.27947ZM69.7791 8.27947L69.7084 8.20852L69.705 8.21228L69.7791 8.27947ZM75.5797 12.9995H75.4797V13.0995H75.5797V12.9995ZM75.5797 6.9995V6.8995H75.4797V6.9995H75.5797ZM76.3597 12.9995V13.0995H76.4597V12.9995H76.3597ZM76.3597 8.1095L76.4446 8.05658L76.2597 7.76022V8.1095H76.3597ZM79.4097 12.9995L79.3249 13.0524L79.3542 13.0995H79.4097V12.9995ZM80.2097 12.9995V13.0995H80.3097V12.9995H80.2097ZM80.2097 6.9995H80.3097V6.8995H80.2097V6.9995ZM79.4397 6.9995V6.8995H79.3397V6.9995H79.4397ZM79.4397 11.6695L79.3549 11.7225L79.5397 12.0181V11.6695H79.4397ZM76.5197 6.9995L76.6045 6.94649L76.5751 6.8995H76.5197V6.9995ZM73.539 12.1486C72.361 13.32 70.458 13.32 69.28 12.1486L69.139 12.2904C70.395 13.5394 72.424 13.5394 73.68 12.2904L73.539 12.1486ZM73.537 7.83837C74.6851 9.04653 74.6851 10.9424 73.537 12.1506L73.682 12.2884C74.9034 11.003 74.9034 8.98596 73.682 7.7006L73.537 7.83837ZM71.4095 6.95352C72.2089 6.95352 72.9753 7.27259 73.5385 7.83994L73.6804 7.69903C73.0797 7.09387 72.2622 6.75352 71.4095 6.75352V6.95352ZM69.2804 7.83994C69.8437 7.27259 70.61 6.95352 71.4095 6.95352V6.75352C70.5567 6.75352 69.7393 7.09387 69.1385 7.69903L69.2804 7.83994ZM69.2822 12.1508C68.1389 10.9406 68.1389 9.04838 69.2822 7.83816L69.1368 7.70081C67.9206 8.98812 67.9206 11.0008 69.1368 12.2882L69.2822 12.1508ZM47.3193 10.2442C47.3524 10.9581 47.0913 11.6543 46.597 12.1704L46.7414 12.3087C47.2736 11.7531 47.5547 11.0035 47.5191 10.2349L47.3193 10.2442ZM47.2808 9.80724C47.3064 9.9499 47.3192 10.0946 47.3192 10.2395L47.5192 10.2396C47.5192 10.0828 47.5053 9.92624 47.4776 9.77188L47.2808 9.80724ZM44.4692 9.88956H47.3792V9.68956H44.4692V9.88956ZM44.5692 10.5096V9.78956H44.3692V10.5096H44.5692ZM46.6392 10.4096H44.4692V10.6096H46.6392V10.4096ZM46.2127 11.7974C46.5367 11.4463 46.7235 10.9903 46.7391 10.5128L46.5392 10.5063C46.5252 10.9358 46.3571 11.3459 46.0657 11.6617L46.2127 11.7974ZM43.5224 12.2906C44.4345 12.6851 45.4942 12.4921 46.2087 11.8015L46.0697 11.6577C45.4133 12.2921 44.4397 12.4694 43.6018 12.107L43.5224 12.2906ZM42.0392 9.99815C42.0252 10.9917 42.6104 11.8961 43.5224 12.2906L43.6018 12.107C42.7639 11.7446 42.2263 10.9138 42.2392 10.001L42.0392 9.99815ZM42.7215 8.23384C42.2629 8.70621 42.0165 9.34504 42.0392 10.003L42.2391 9.99611C42.2183 9.39252 42.4443 8.80649 42.865 8.37315L42.7215 8.23384ZM44.4697 7.49956C43.8113 7.49633 43.1801 7.76147 42.7215 8.23384L42.865 8.37315C43.2857 7.93982 43.8648 7.69659 44.4687 7.69956L44.4697 7.49956ZM46.1857 8.24521C45.7608 7.73982 45.123 7.46368 44.4637 7.49971L44.4746 7.69941C45.0711 7.66681 45.6482 7.91665 46.0326 8.37391L46.1857 8.24521ZM46.5685 7.70885L46.0385 8.23885L46.1799 8.38027L46.7099 7.85027L46.5685 7.70885ZM45.6618 7.2023C46.009 7.34234 46.3181 7.56265 46.5637 7.84517L46.7147 7.71394C46.4483 7.40758 46.1131 7.16868 45.7366 7.01682L45.6618 7.2023ZM44.4695 6.95956C44.8786 6.95819 45.2837 7.04053 45.6598 7.20149L45.7385 7.01762C45.3373 6.84593 44.9052 6.7581 44.4689 6.75956L44.4695 6.95956ZM42.3306 7.82953C42.8918 7.25662 43.6652 6.94166 44.467 6.95953L44.4714 6.75958C43.6143 6.74048 42.7876 7.07715 42.1877 7.68958L42.3306 7.82953ZM41.6734 11.1404C41.2062 10.0053 41.465 8.70081 42.3301 7.83004L42.1882 7.68908C41.2664 8.61695 40.9906 10.007 41.4884 11.2165L41.6734 11.1404ZM44.47 13.0296C43.2426 13.02 42.1405 12.2755 41.6734 11.1404L41.4884 11.2165C41.9862 12.426 43.1605 13.2193 44.4684 13.2296L44.47 13.0296ZM46.5971 12.1702C46.0433 12.7455 45.2708 13.058 44.4727 13.0296L44.4656 13.2295C45.3205 13.2599 46.148 12.9252 46.7412 12.3089L46.5971 12.1702ZM51.9995 7.6395H49.2995V7.8395H51.9995V7.6395ZM51.8995 6.9995V7.7395H52.0995V6.9995H51.8995ZM48.4995 7.0995H51.9995V6.8995H48.4995V7.0995ZM48.5995 12.9995V6.9995H48.3995V12.9995H48.5995ZM51.9995 12.8995H48.4995V13.0995H51.9995V12.8995ZM51.8995 12.2595V12.9995H52.0995V12.2595H51.8995ZM49.2995 12.3595H51.9995V12.1595H49.2995V12.3595ZM49.1995 10.3595V12.2595H49.3995V10.3595H49.1995ZM51.7595 10.2595H49.2995V10.4595H51.7595V10.2595ZM51.6595 9.6395V10.3595H51.8595V9.6395H51.6595ZM49.2995 9.7395H51.7595V9.5395H49.2995V9.7395ZM49.1995 7.7395V9.6395H49.3995V7.7395H49.1995ZM54.5094 13.0995H55.2794V12.8995H54.5094V13.0995ZM54.4094 7.7395V12.9995H54.6094V7.7395H54.4094ZM52.8294 7.8395H54.5094V7.6395H52.8294V7.8395ZM52.7294 6.9995V7.7395H52.9294V6.9995H52.7294ZM56.9994 6.8995H52.8294V7.0995H56.9994V6.8995ZM57.0994 7.7395V6.9995H56.8994V7.7395H57.0994ZM55.2794 7.8395H56.9994V7.6395H55.2794V7.8395ZM55.3794 12.9995V7.7395H55.1794V12.9995H55.3794ZM60.0388 12.9995V6.9995H59.8388V12.9995H60.0388ZM60.7088 12.8995H59.9388V13.0995H60.7088V12.8995ZM60.6088 6.9995V12.9995H60.8088V6.9995H60.6088ZM59.9388 7.0995H60.7088V6.8995H59.9388V7.0995ZM63.3588 13.0995H64.1288V12.8995H63.3588V13.0995ZM63.2588 7.7395V12.9995H63.4588V7.7395H63.2588ZM61.6788 7.8395H63.3588V7.6395H61.6788V7.8395ZM61.5788 6.9995V7.7395H61.7788V6.9995H61.5788ZM65.7988 6.8995H61.6788V7.0995H65.7988V6.8995ZM65.8988 7.7395V6.9995H65.6988V7.7395H65.8988ZM64.1288 7.8395H65.7988V7.6395H64.1288V7.8395ZM64.2288 12.9995V7.7395H64.0288V12.9995H64.2288ZM72.9685 11.6486C72.1062 12.5073 70.712 12.5073 69.8497 11.6486L69.7085 11.7903C70.6489 12.7267 72.1693 12.7267 73.1097 11.7903L72.9685 11.6486ZM72.965 8.34666C73.8157 9.28437 73.8157 10.7146 72.965 11.6523L73.1132 11.7867C74.0329 10.7727 74.0329 9.22623 73.1132 8.21228L72.965 8.34666ZM69.8497 8.35033C70.712 7.49162 72.1062 7.49162 72.9685 8.35033L73.1097 8.20861C72.1693 7.27219 70.6489 7.27219 69.7085 8.20861L69.8497 8.35033ZM69.8532 11.6523C69.0025 10.7146 69.0025 9.28437 69.8532 8.34666L69.705 8.21228C68.7853 9.22623 68.7853 10.7727 69.705 11.7867L69.8532 11.6523ZM75.6797 12.9995V6.9995H75.4797V12.9995H75.6797ZM76.3597 12.8995H75.5797V13.0995H76.3597V12.8995ZM76.2597 8.1095V12.9995H76.4597V8.1095H76.2597ZM79.4946 12.9466L76.4446 8.05658L76.2749 8.16243L79.3249 13.0524L79.4946 12.9466ZM80.2097 12.8995H79.4097V13.0995H80.2097V12.8995ZM80.1097 6.9995V12.9995H80.3097V6.9995H80.1097ZM79.4397 7.0995H80.2097V6.8995H79.4397V7.0995ZM79.5397 11.6695V6.9995H79.3397V11.6695H79.5397ZM76.4349 7.05252L79.3549 11.7225L79.5245 11.6165L76.6045 6.94649L76.4349 7.05252ZM75.5797 7.0995H76.5197V6.8995H75.5797V7.0995Z" fill="#00A69C"/>
<path d="M10.4401 7.54021C10.1142 7.93132 9.9497 8.43201 9.98014 8.94021V31.0602C9.9497 31.5684 10.1142 32.0691 10.4401 32.4602L10.5101 32.5302L22.9001 20.1502V19.8602L10.5101 7.47021L10.4401 7.54021Z" fill="url(#paint0_linear)"/>
<path d="M27.0004 24.2802L22.9004 20.1502V19.8602L27.0004 15.7202L27.0904 15.7702L32.0004 18.5602C33.4004 19.3502 33.4004 20.6502 32.0004 21.4502L27.1104 24.2302L27.0004 24.2802Z" fill="url(#paint1_linear)"/>
<path d="M27.1214 24.22L22.9014 20L10.4414 32.46C11.0301 32.9775 11.9038 33.0027 12.5214 32.52L27.1314 24.22" fill="url(#paint2_linear)"/>
<path d="M27.1197 15.78L12.5097 7.48005C11.8921 6.99733 11.0184 7.02253 10.4297 7.54005L22.8997 20L27.1197 15.78Z" fill="url(#paint3_linear)"/>
<path opacity="0.2" d="M27.0014 24.1299L12.5114 32.3799C11.9184 32.8232 11.1044 32.8232 10.5114 32.3799L10.4414 32.4499L10.5114 32.5199C11.1033 32.9666 11.9196 32.9666 12.5114 32.5199L27.1214 24.2199L27.0014 24.1299Z" fill="#001F1D"/>
<path opacity="0.12" fill-rule="evenodd" clip-rule="evenodd" d="M26.9999 24.13L31.9999 21.3C32.5166 21.045 32.8859 20.5648 32.9999 20C32.9483 20.6244 32.5669 21.1736 31.9999 21.44L27.0899 24.22L26.9999 24.13ZM9.97797 31.1146C9.99448 31.5546 10.156 31.9789 10.4401 32.32L10.5101 32.4L10.4401 32.47C10.1238 32.0903 9.95948 31.6074 9.97797 31.1146ZM9.97797 31.1146C9.97853 31.0997 9.97925 31.0849 9.98014 31.07V30.92C9.97625 30.985 9.97554 31.05 9.97797 31.1146Z" fill="#001F1D"/>
<path opacity="0.25" d="M12.5107 7.61994L32.0007 18.6999C32.5174 18.955 32.8867 19.4351 33.0007 19.9999C32.9492 19.3755 32.5678 18.8263 32.0007 18.5599L12.5107 7.47994C11.1107 6.68994 9.9707 7.34994 9.9707 8.94994V9.09994C10.0007 7.48994 11.1207 6.82994 12.5107 7.61994Z" fill="white"/>
<defs>
<linearGradient id="paint0_linear" x1="17.4734" y1="-7.55876" x2="-2.36605" y2="-2.28242" gradientUnits="userSpaceOnUse">
<stop stop-color="#00A0FF"/>
<stop offset="0.01" stop-color="#00A1FF"/>
<stop offset="0.26" stop-color="#00BEFF"/>
<stop offset="0.51" stop-color="#00D2FF"/>
<stop offset="0.76" stop-color="#00DFFF"/>
<stop offset="1" stop-color="#00E3FF"/>
</linearGradient>
<linearGradient id="paint1_linear" x1="33.8304" y1="9.7999" x2="9.64039" y2="9.7999" gradientUnits="userSpaceOnUse">
<stop stop-color="#FFE000"/>
<stop offset="0.41" stop-color="#FFBD00"/>
<stop offset="0.78" stop-color="#FFA500"/>
<stop offset="1" stop-color="#FF9C00"/>
</linearGradient>
<linearGradient id="paint2_linear" x1="10.0753" y1="13.5275" x2="-5.86115" y2="40.3341" gradientUnits="userSpaceOnUse">
<stop stop-color="#FF3A44"/>
<stop offset="1" stop-color="#C31162"/>
</linearGradient>
<linearGradient id="paint3_linear" x1="0.709706" y1="4.09606" x2="7.82299" y2="16.0665" gradientUnits="userSpaceOnUse">
<stop stop-color="#32A071"/>
<stop offset="0.07" stop-color="#2DA771"/>
<stop offset="0.48" stop-color="#15CF74"/>
<stop offset="0.8" stop-color="#06E775"/>
<stop offset="1" stop-color="#00F076"/>
</linearGradient>
</defs>
</svg>
